G04*
G04 #@! TF.GenerationSoftware,Altium Limited,Altium Designer,22.10.1 (41)*
G04*
G04 Layer_Color=8388736*
%FSLAX44Y44*%
%MOMM*%
G71*
G04*
G04 #@! TF.SameCoordinates,6AC466C0-41EF-44D2-8528-C36EB44BF29F*
G04*
G04*
G04 #@! TF.FilePolarity,Negative*
G04*
G01*
G75*
%ADD13R,2.0000X1.0000*%
%ADD14R,1.0000X0.2700*%
%ADD15R,1.0000X0.5200*%
%ADD27R,0.8000X0.8000*%
%ADD32R,0.5153X0.4725*%
%ADD33R,0.9032X1.1532*%
%ADD34R,0.7032X0.6532*%
%ADD35R,0.7532X0.7532*%
%ADD36R,1.1532X0.9032*%
%ADD37R,0.9632X0.9232*%
%ADD38R,3.2032X2.3032*%
%ADD39R,1.8032X1.0032*%
%ADD40C,0.9902*%
%ADD41R,2.9032X1.7032*%
%ADD42R,1.0532X0.9532*%
%ADD43R,0.9532X1.0532*%
%ADD44R,0.7532X0.7532*%
%ADD45R,0.9232X0.9632*%
%ADD46R,5.8032X5.8032*%
%ADD47O,0.4532X1.1032*%
%ADD48O,1.1032X0.4532*%
G04:AMPARAMS|DCode=49|XSize=0.85mm|YSize=0.6mm|CornerRadius=0.3mm|HoleSize=0mm|Usage=FLASHONLY|Rotation=270.000|XOffset=0mm|YOffset=0mm|HoleType=Round|Shape=RoundedRectangle|*
%AMROUNDEDRECTD49*
21,1,0.8500,0.0000,0,0,270.0*
21,1,0.2500,0.6000,0,0,270.0*
1,1,0.6000,0.0000,-0.1250*
1,1,0.6000,0.0000,0.1250*
1,1,0.6000,0.0000,0.1250*
1,1,0.6000,0.0000,-0.1250*
%
%ADD49ROUNDEDRECTD49*%
%ADD50C,0.6000*%
G04:AMPARAMS|DCode=51|XSize=1.3mm|YSize=2.6mm|CornerRadius=0.65mm|HoleSize=0mm|Usage=FLASHONLY|Rotation=270.000|XOffset=0mm|YOffset=0mm|HoleType=Round|Shape=RoundedRectangle|*
%AMROUNDEDRECTD51*
21,1,1.3000,1.3000,0,0,270.0*
21,1,0.0000,2.6000,0,0,270.0*
1,1,1.3000,-0.6500,0.0000*
1,1,1.3000,-0.6500,0.0000*
1,1,1.3000,0.6500,0.0000*
1,1,1.3000,0.6500,0.0000*
%
%ADD51ROUNDEDRECTD51*%
G04:AMPARAMS|DCode=52|XSize=1.3mm|YSize=2.3mm|CornerRadius=0.65mm|HoleSize=0mm|Usage=FLASHONLY|Rotation=270.000|XOffset=0mm|YOffset=0mm|HoleType=Round|Shape=RoundedRectangle|*
%AMROUNDEDRECTD52*
21,1,1.3000,1.0000,0,0,270.0*
21,1,0.0000,2.3000,0,0,270.0*
1,1,1.3000,-0.5000,0.0000*
1,1,1.3000,-0.5000,0.0000*
1,1,1.3000,0.5000,0.0000*
1,1,1.3000,0.5000,0.0000*
%
%ADD52ROUNDEDRECTD52*%
%ADD53C,0.7032*%
D13*
X-10040Y-14016D02*
D03*
Y13984D02*
D03*
D14*
X31960Y-17516D02*
D03*
Y-12516D02*
D03*
Y-7516D02*
D03*
Y-2517D02*
D03*
Y2483D02*
D03*
Y7484D02*
D03*
Y12484D02*
D03*
Y17484D02*
D03*
D15*
Y-23516D02*
D03*
Y-31016D02*
D03*
Y23484D02*
D03*
Y30984D02*
D03*
D27*
X122081Y-48467D02*
D03*
X137081D02*
D03*
X76074Y-48514D02*
D03*
X91074D02*
D03*
D32*
X50214Y46000D02*
D03*
X57786D02*
D03*
D33*
X50212Y13726D02*
D03*
Y30226D02*
D03*
D34*
X52321Y-10414D02*
D03*
X59821D02*
D03*
X52321Y-1911D02*
D03*
X59821D02*
D03*
D35*
X80630Y50058D02*
D03*
X89629D02*
D03*
X99132D02*
D03*
X108132D02*
D03*
D36*
X157612Y46293D02*
D03*
X174112D02*
D03*
D37*
X157926Y33441D02*
D03*
X167726D02*
D03*
D38*
X230733Y44250D02*
D03*
Y-44250D02*
D03*
D39*
X201733Y18750D02*
D03*
Y6250D02*
D03*
Y-6250D02*
D03*
Y-18750D02*
D03*
D40*
X56642Y-35814D02*
D03*
Y-47244D02*
D03*
D41*
X166326Y-4064D02*
D03*
Y-23064D02*
D03*
D42*
X179977Y22188D02*
D03*
Y9689D02*
D03*
D43*
X166079Y-37567D02*
D03*
X178579D02*
D03*
D44*
X101826Y-44217D02*
D03*
Y-53217D02*
D03*
X111329Y-44217D02*
D03*
Y-53217D02*
D03*
X156326Y-36567D02*
D03*
Y-45567D02*
D03*
X156972Y9438D02*
D03*
Y18439D02*
D03*
D45*
X167974Y11039D02*
D03*
Y20838D02*
D03*
D46*
X105574Y3556D02*
D03*
D47*
X133074Y-30944D02*
D03*
X128074D02*
D03*
X123074D02*
D03*
X118074D02*
D03*
X113074D02*
D03*
X108074D02*
D03*
X103074D02*
D03*
X98074D02*
D03*
X93074D02*
D03*
X88074D02*
D03*
X83074D02*
D03*
X78074D02*
D03*
Y38056D02*
D03*
X83074D02*
D03*
X88074D02*
D03*
X93074D02*
D03*
X98074D02*
D03*
X103074D02*
D03*
X108074D02*
D03*
X113074D02*
D03*
X118074D02*
D03*
X123074D02*
D03*
X128074D02*
D03*
X133074D02*
D03*
D48*
X71074Y-23944D02*
D03*
Y-18944D02*
D03*
Y-13944D02*
D03*
Y-8944D02*
D03*
Y-3944D02*
D03*
Y1056D02*
D03*
Y6056D02*
D03*
Y11056D02*
D03*
Y16056D02*
D03*
Y21056D02*
D03*
Y26056D02*
D03*
Y31056D02*
D03*
X140074D02*
D03*
Y26056D02*
D03*
Y21056D02*
D03*
Y16056D02*
D03*
Y11056D02*
D03*
Y6056D02*
D03*
Y1056D02*
D03*
Y-3944D02*
D03*
Y-8944D02*
D03*
Y-13944D02*
D03*
Y-18944D02*
D03*
Y-23944D02*
D03*
D49*
X20960Y-30017D02*
D03*
D50*
Y29983D02*
D03*
D51*
X-10040Y-43217D02*
D03*
Y43183D02*
D03*
D52*
X28210Y-43217D02*
D03*
Y43183D02*
D03*
D53*
X83574Y25556D02*
D03*
X94574D02*
D03*
X105574D02*
D03*
X116574D02*
D03*
X127574D02*
D03*
X83574Y14556D02*
D03*
X94574D02*
D03*
X105574D02*
D03*
X116574D02*
D03*
X127574D02*
D03*
X83574Y3556D02*
D03*
X94574D02*
D03*
X105574D02*
D03*
X116574D02*
D03*
X127574D02*
D03*
X83574Y-7444D02*
D03*
X94574D02*
D03*
X105574D02*
D03*
X116574D02*
D03*
X127574D02*
D03*
X83574Y-18444D02*
D03*
X94574D02*
D03*
X105574D02*
D03*
X116574D02*
D03*
X127574D02*
D03*
M02*
