G04*
G04 #@! TF.GenerationSoftware,Altium Limited,Altium Designer,22.10.1 (41)*
G04*
G04 Layer_Physical_Order=3*
G04 Layer_Color=16440176*
%FSLAX44Y44*%
%MOMM*%
G71*
G04*
G04 #@! TF.SameCoordinates,6AC466C0-41EF-44D2-8528-C36EB44BF29F*
G04*
G04*
G04 #@! TF.FilePolarity,Positive*
G04*
G01*
G75*
%ADD54C,0.1270*%
%ADD56C,0.4500*%
G36*
X249922Y-59922D02*
X-30922D01*
Y58922D01*
X249922D01*
Y-59922D01*
D02*
G37*
%LPC*%
G36*
X144272Y48780D02*
X143004Y48527D01*
X141929Y47809D01*
X141211Y46734D01*
X140958Y45466D01*
X141211Y44198D01*
X141929Y43123D01*
X143004Y42405D01*
X144272Y42152D01*
X145540Y42405D01*
X146615Y43123D01*
X147333Y44198D01*
X147586Y45466D01*
X147333Y46734D01*
X146615Y47809D01*
X145540Y48527D01*
X144272Y48780D01*
D02*
G37*
G36*
X209042Y42430D02*
X207774Y42177D01*
X206699Y41459D01*
X205981Y40384D01*
X205728Y39116D01*
X205981Y37848D01*
X206699Y36773D01*
X207774Y36055D01*
X209042Y35802D01*
X210310Y36055D01*
X211385Y36773D01*
X212103Y37848D01*
X212356Y39116D01*
X212103Y40384D01*
X211385Y41459D01*
X210310Y42177D01*
X209042Y42430D01*
D02*
G37*
G36*
X33210Y50748D02*
X23210D01*
X21252Y50490D01*
X19427Y49735D01*
X17861Y48533D01*
X16658Y46966D01*
X15903Y45141D01*
X15645Y43183D01*
X15903Y41226D01*
X16658Y39401D01*
X17861Y37834D01*
X19427Y36632D01*
X21252Y35877D01*
X23210Y35619D01*
X33210D01*
X35168Y35877D01*
X36992Y36632D01*
X38559Y37834D01*
X39761Y39401D01*
X40517Y41226D01*
X40774Y43183D01*
X40517Y45141D01*
X39761Y46966D01*
X38559Y48533D01*
X36992Y49735D01*
X35168Y50490D01*
X33210Y50748D01*
D02*
G37*
G36*
X-3540D02*
X-16540D01*
X-18498Y50490D01*
X-20323Y49735D01*
X-21889Y48533D01*
X-23092Y46966D01*
X-23847Y45141D01*
X-24105Y43183D01*
X-23847Y41226D01*
X-23092Y39401D01*
X-21889Y37834D01*
X-20323Y36632D01*
X-18498Y35877D01*
X-16540Y35619D01*
X-3540D01*
X-1583Y35877D01*
X242Y36632D01*
X1809Y37834D01*
X3011Y39401D01*
X3767Y41226D01*
X4024Y43183D01*
X3767Y45141D01*
X3011Y46966D01*
X1809Y48533D01*
X242Y49735D01*
X-1583Y50490D01*
X-3540Y50748D01*
D02*
G37*
G36*
X189992Y42430D02*
X188724Y42177D01*
X187649Y41459D01*
X187197Y40783D01*
X127127D01*
X126489Y40656D01*
X125948Y40295D01*
X119313Y33659D01*
X75720D01*
X75007Y34929D01*
X75196Y35877D01*
X74943Y37145D01*
X74225Y38220D01*
X73150Y38939D01*
X71882Y39191D01*
X70614Y38939D01*
X69539Y38220D01*
X68821Y37145D01*
X68568Y35877D01*
X67330Y35667D01*
X60795D01*
X60343Y36343D01*
X59268Y37061D01*
X58000Y37314D01*
X56732Y37061D01*
X55657Y36343D01*
X54939Y35268D01*
X54686Y34000D01*
X54939Y32732D01*
X55657Y31657D01*
X56732Y30939D01*
X58000Y30686D01*
X59268Y30939D01*
X60343Y31657D01*
X60795Y32333D01*
X67575D01*
X69094Y30814D01*
X69635Y30452D01*
X70273Y30325D01*
X83100D01*
X83225Y29055D01*
X82208Y28853D01*
X81050Y28079D01*
X80277Y26922D01*
X80005Y25556D01*
X80277Y24190D01*
X81050Y23033D01*
X82208Y22259D01*
X83574Y21987D01*
X84939Y22259D01*
X86097Y23033D01*
X86871Y24190D01*
X87142Y25556D01*
X86871Y26922D01*
X86097Y28079D01*
X84939Y28853D01*
X83922Y29055D01*
X84047Y30325D01*
X94100D01*
X94226Y29055D01*
X93208Y28853D01*
X92050Y28079D01*
X91277Y26922D01*
X91005Y25556D01*
X91277Y24190D01*
X92050Y23033D01*
X93208Y22259D01*
X94574Y21987D01*
X95939Y22259D01*
X97097Y23033D01*
X97871Y24190D01*
X98142Y25556D01*
X97871Y26922D01*
X97097Y28079D01*
X95939Y28853D01*
X94922Y29055D01*
X95047Y30325D01*
X105100D01*
X105225Y29055D01*
X104208Y28853D01*
X103050Y28079D01*
X102277Y26922D01*
X102005Y25556D01*
X102277Y24190D01*
X103050Y23033D01*
X104208Y22259D01*
X105574Y21987D01*
X106939Y22259D01*
X108097Y23033D01*
X108871Y24190D01*
X109142Y25556D01*
X108871Y26922D01*
X108097Y28079D01*
X106939Y28853D01*
X105922Y29055D01*
X106047Y30325D01*
X116100D01*
X116226Y29055D01*
X115208Y28853D01*
X114050Y28079D01*
X113277Y26922D01*
X113005Y25556D01*
X113277Y24190D01*
X114050Y23033D01*
X115208Y22259D01*
X116574Y21987D01*
X117939Y22259D01*
X119097Y23033D01*
X119871Y24190D01*
X120142Y25556D01*
X119871Y26922D01*
X119097Y28079D01*
X117939Y28853D01*
X116922Y29055D01*
X117047Y30325D01*
X120003D01*
X120641Y30452D01*
X121182Y30814D01*
X127817Y37449D01*
X187197D01*
X187649Y36773D01*
X188724Y36055D01*
X189992Y35802D01*
X191260Y36055D01*
X192335Y36773D01*
X193053Y37848D01*
X193306Y39116D01*
X193053Y40384D01*
X192335Y41459D01*
X191260Y42177D01*
X189992Y42430D01*
D02*
G37*
G36*
X20960Y34062D02*
X19399Y33751D01*
X18076Y32867D01*
X17192Y31544D01*
X16881Y29983D01*
X17192Y28423D01*
X18076Y27100D01*
X19399Y26216D01*
X20960Y25905D01*
X22520Y26216D01*
X23844Y27100D01*
X24728Y28423D01*
X25038Y29983D01*
X24728Y31544D01*
X23844Y32867D01*
X22520Y33751D01*
X20960Y34062D01*
D02*
G37*
G36*
X127574Y29125D02*
X126208Y28853D01*
X125050Y28079D01*
X124277Y26922D01*
X124005Y25556D01*
X124277Y24190D01*
X125050Y23033D01*
X126208Y22259D01*
X127574Y21987D01*
X128939Y22259D01*
X130097Y23033D01*
X130871Y24190D01*
X131142Y25556D01*
X130871Y26922D01*
X130097Y28079D01*
X128939Y28853D01*
X127574Y29125D01*
D02*
G37*
G36*
X188722Y25920D02*
X187454Y25667D01*
X186379Y24949D01*
X185661Y23874D01*
X185408Y22606D01*
X185661Y21338D01*
X186379Y20263D01*
X187454Y19545D01*
X188722Y19292D01*
X189990Y19545D01*
X191065Y20263D01*
X191783Y21338D01*
X192036Y22606D01*
X191783Y23874D01*
X191065Y24949D01*
X189990Y25667D01*
X188722Y25920D01*
D02*
G37*
G36*
X62992Y29730D02*
X61724Y29477D01*
X60649Y28759D01*
X59931Y27684D01*
X59678Y26416D01*
X59712Y26248D01*
X59497Y25042D01*
X58790Y24868D01*
X58223Y24755D01*
X57148Y24037D01*
X56430Y22962D01*
X56178Y21694D01*
X56430Y20426D01*
X57148Y19351D01*
X57454Y17619D01*
X57391Y17524D01*
X57138Y16256D01*
X57391Y14988D01*
X58109Y13913D01*
X59184Y13195D01*
X60452Y12942D01*
X61720Y13195D01*
X62795Y13913D01*
X63513Y14988D01*
X63766Y16256D01*
X63513Y17524D01*
X62795Y18599D01*
X62489Y20331D01*
X62553Y20426D01*
X62805Y21694D01*
X62771Y21862D01*
X62986Y23068D01*
X63693Y23242D01*
X64260Y23355D01*
X65335Y24073D01*
X66053Y25148D01*
X66306Y26416D01*
X66053Y27684D01*
X65335Y28759D01*
X64260Y29477D01*
X62992Y29730D01*
D02*
G37*
G36*
X127574Y18125D02*
X126208Y17853D01*
X125050Y17079D01*
X124277Y15922D01*
X124005Y14556D01*
X124277Y13190D01*
X125050Y12033D01*
X126208Y11259D01*
X127574Y10987D01*
X128939Y11259D01*
X130097Y12033D01*
X130871Y13190D01*
X131142Y14556D01*
X130871Y15922D01*
X130097Y17079D01*
X128939Y17853D01*
X127574Y18125D01*
D02*
G37*
G36*
X116574D02*
X115208Y17853D01*
X114050Y17079D01*
X113277Y15922D01*
X113005Y14556D01*
X113277Y13190D01*
X114050Y12033D01*
X115208Y11259D01*
X116574Y10987D01*
X117939Y11259D01*
X119097Y12033D01*
X119871Y13190D01*
X120142Y14556D01*
X119871Y15922D01*
X119097Y17079D01*
X117939Y17853D01*
X116574Y18125D01*
D02*
G37*
G36*
X105574D02*
X104208Y17853D01*
X103050Y17079D01*
X102277Y15922D01*
X102005Y14556D01*
X102277Y13190D01*
X103050Y12033D01*
X104208Y11259D01*
X105574Y10987D01*
X106939Y11259D01*
X108097Y12033D01*
X108871Y13190D01*
X109142Y14556D01*
X108871Y15922D01*
X108097Y17079D01*
X106939Y17853D01*
X105574Y18125D01*
D02*
G37*
G36*
X94574D02*
X93208Y17853D01*
X92050Y17079D01*
X91277Y15922D01*
X91005Y14556D01*
X91277Y13190D01*
X92050Y12033D01*
X93208Y11259D01*
X94574Y10987D01*
X95939Y11259D01*
X97097Y12033D01*
X97871Y13190D01*
X98142Y14556D01*
X97871Y15922D01*
X97097Y17079D01*
X95939Y17853D01*
X94574Y18125D01*
D02*
G37*
G36*
X83574D02*
X82208Y17853D01*
X81050Y17079D01*
X80277Y15922D01*
X80005Y14556D01*
X80277Y13190D01*
X81050Y12033D01*
X82208Y11259D01*
X83574Y10987D01*
X84939Y11259D01*
X86097Y12033D01*
X86871Y13190D01*
X87142Y14556D01*
X86871Y15922D01*
X86097Y17079D01*
X84939Y17853D01*
X83574Y18125D01*
D02*
G37*
G36*
X57912Y6902D02*
X56644Y6650D01*
X55569Y5932D01*
X54851Y4857D01*
X54598Y3589D01*
X54851Y2321D01*
X55569Y1245D01*
X56644Y527D01*
X57912Y275D01*
X59180Y527D01*
X60255Y1245D01*
X60973Y2321D01*
X61226Y3589D01*
X60973Y4857D01*
X60255Y5932D01*
X59180Y6650D01*
X57912Y6902D01*
D02*
G37*
G36*
X127574Y7125D02*
X126208Y6853D01*
X125050Y6079D01*
X124277Y4922D01*
X124005Y3556D01*
X124277Y2190D01*
X125050Y1033D01*
X126208Y259D01*
X127574Y-13D01*
X128939Y259D01*
X130097Y1033D01*
X130871Y2190D01*
X131142Y3556D01*
X130871Y4922D01*
X130097Y6079D01*
X128939Y6853D01*
X127574Y7125D01*
D02*
G37*
G36*
X116574D02*
X115208Y6853D01*
X114050Y6079D01*
X113277Y4922D01*
X113005Y3556D01*
X113277Y2190D01*
X114050Y1033D01*
X115208Y259D01*
X116574Y-13D01*
X117939Y259D01*
X119097Y1033D01*
X119871Y2190D01*
X120142Y3556D01*
X119871Y4922D01*
X119097Y6079D01*
X117939Y6853D01*
X116574Y7125D01*
D02*
G37*
G36*
X105574D02*
X104208Y6853D01*
X103050Y6079D01*
X102277Y4922D01*
X102005Y3556D01*
X102277Y2190D01*
X103050Y1033D01*
X104208Y259D01*
X105574Y-13D01*
X106939Y259D01*
X108097Y1033D01*
X108871Y2190D01*
X109142Y3556D01*
X108871Y4922D01*
X108097Y6079D01*
X106939Y6853D01*
X105574Y7125D01*
D02*
G37*
G36*
X94574D02*
X93208Y6853D01*
X92050Y6079D01*
X91277Y4922D01*
X91005Y3556D01*
X91277Y2190D01*
X92050Y1033D01*
X93208Y259D01*
X94574Y-13D01*
X95939Y259D01*
X97097Y1033D01*
X97871Y2190D01*
X98142Y3556D01*
X97871Y4922D01*
X97097Y6079D01*
X95939Y6853D01*
X94574Y7125D01*
D02*
G37*
G36*
X83574D02*
X82208Y6853D01*
X81050Y6079D01*
X80277Y4922D01*
X80005Y3556D01*
X80277Y2190D01*
X81050Y1033D01*
X82208Y259D01*
X83574Y-13D01*
X84939Y259D01*
X86097Y1033D01*
X86871Y2190D01*
X87142Y3556D01*
X86871Y4922D01*
X86097Y6079D01*
X84939Y6853D01*
X83574Y7125D01*
D02*
G37*
G36*
X127574Y-3875D02*
X126208Y-4147D01*
X125050Y-4921D01*
X124277Y-6078D01*
X124005Y-7444D01*
X124277Y-8810D01*
X125050Y-9967D01*
X126208Y-10741D01*
X127574Y-11013D01*
X128939Y-10741D01*
X130097Y-9967D01*
X130871Y-8810D01*
X131142Y-7444D01*
X130871Y-6078D01*
X130097Y-4921D01*
X128939Y-4147D01*
X127574Y-3875D01*
D02*
G37*
G36*
X116574D02*
X115208Y-4147D01*
X114050Y-4921D01*
X113277Y-6078D01*
X113005Y-7444D01*
X113277Y-8810D01*
X114050Y-9967D01*
X115208Y-10741D01*
X116574Y-11013D01*
X117939Y-10741D01*
X119097Y-9967D01*
X119871Y-8810D01*
X120142Y-7444D01*
X119871Y-6078D01*
X119097Y-4921D01*
X117939Y-4147D01*
X116574Y-3875D01*
D02*
G37*
G36*
X105574D02*
X104208Y-4147D01*
X103050Y-4921D01*
X102277Y-6078D01*
X102005Y-7444D01*
X102277Y-8810D01*
X103050Y-9967D01*
X104208Y-10741D01*
X105574Y-11013D01*
X106939Y-10741D01*
X108097Y-9967D01*
X108871Y-8810D01*
X109142Y-7444D01*
X108871Y-6078D01*
X108097Y-4921D01*
X106939Y-4147D01*
X105574Y-3875D01*
D02*
G37*
G36*
X94574D02*
X93208Y-4147D01*
X92050Y-4921D01*
X91277Y-6078D01*
X91005Y-7444D01*
X91277Y-8810D01*
X92050Y-9967D01*
X93208Y-10741D01*
X94574Y-11013D01*
X95939Y-10741D01*
X97097Y-9967D01*
X97871Y-8810D01*
X98142Y-7444D01*
X97871Y-6078D01*
X97097Y-4921D01*
X95939Y-4147D01*
X94574Y-3875D01*
D02*
G37*
G36*
X83574D02*
X82208Y-4147D01*
X81050Y-4921D01*
X80277Y-6078D01*
X80005Y-7444D01*
X80277Y-8810D01*
X81050Y-9967D01*
X82208Y-10741D01*
X83574Y-11013D01*
X84939Y-10741D01*
X86097Y-9967D01*
X86871Y-8810D01*
X87142Y-7444D01*
X86871Y-6078D01*
X86097Y-4921D01*
X84939Y-4147D01*
X83574Y-3875D01*
D02*
G37*
G36*
X220472Y-10910D02*
X219204Y-11163D01*
X218129Y-11881D01*
X217411Y-12956D01*
X217158Y-14224D01*
X217411Y-15492D01*
X218129Y-16567D01*
X219204Y-17285D01*
X220472Y-17538D01*
X221740Y-17285D01*
X222815Y-16567D01*
X223533Y-15492D01*
X223786Y-14224D01*
X223533Y-12956D01*
X222815Y-11881D01*
X221740Y-11163D01*
X220472Y-10910D01*
D02*
G37*
G36*
X127574Y-14875D02*
X126208Y-15147D01*
X125050Y-15921D01*
X124277Y-17078D01*
X124005Y-18444D01*
X124277Y-19810D01*
X125050Y-20967D01*
X126208Y-21741D01*
X127574Y-22013D01*
X128939Y-21741D01*
X130097Y-20967D01*
X130871Y-19810D01*
X131142Y-18444D01*
X130871Y-17078D01*
X130097Y-15921D01*
X128939Y-15147D01*
X127574Y-14875D01*
D02*
G37*
G36*
X116574D02*
X115208Y-15147D01*
X114050Y-15921D01*
X113277Y-17078D01*
X113005Y-18444D01*
X113277Y-19810D01*
X114050Y-20967D01*
X115208Y-21741D01*
X116574Y-22013D01*
X117939Y-21741D01*
X119097Y-20967D01*
X119871Y-19810D01*
X120142Y-18444D01*
X119871Y-17078D01*
X119097Y-15921D01*
X117939Y-15147D01*
X116574Y-14875D01*
D02*
G37*
G36*
X105574D02*
X104208Y-15147D01*
X103050Y-15921D01*
X102277Y-17078D01*
X102005Y-18444D01*
X102277Y-19810D01*
X103050Y-20967D01*
X104208Y-21741D01*
X105574Y-22013D01*
X106939Y-21741D01*
X108097Y-20967D01*
X108871Y-19810D01*
X109142Y-18444D01*
X108871Y-17078D01*
X108097Y-15921D01*
X106939Y-15147D01*
X105574Y-14875D01*
D02*
G37*
G36*
X94574D02*
X93208Y-15147D01*
X92050Y-15921D01*
X91277Y-17078D01*
X91005Y-18444D01*
X91277Y-19810D01*
X92050Y-20967D01*
X93208Y-21741D01*
X94574Y-22013D01*
X95939Y-21741D01*
X97097Y-20967D01*
X97871Y-19810D01*
X98142Y-18444D01*
X97871Y-17078D01*
X97097Y-15921D01*
X95939Y-15147D01*
X94574Y-14875D01*
D02*
G37*
G36*
X83574D02*
X82208Y-15147D01*
X81050Y-15921D01*
X80277Y-17078D01*
X80005Y-18444D01*
X80277Y-19810D01*
X81050Y-20967D01*
X82208Y-21741D01*
X83574Y-22013D01*
X84939Y-21741D01*
X86097Y-20967D01*
X86871Y-19810D01*
X87142Y-18444D01*
X86871Y-17078D01*
X86097Y-15921D01*
X84939Y-15147D01*
X83574Y-14875D01*
D02*
G37*
G36*
X63000Y-21686D02*
X61732Y-21939D01*
X60657Y-22657D01*
X59939Y-23732D01*
X59686Y-25000D01*
X59939Y-26268D01*
X60657Y-27343D01*
X61732Y-28061D01*
X63000Y-28314D01*
X64268Y-28061D01*
X65343Y-27343D01*
X66061Y-26268D01*
X66314Y-25000D01*
X66061Y-23732D01*
X65343Y-22657D01*
X64268Y-21939D01*
X63000Y-21686D01*
D02*
G37*
G36*
X47752Y-24880D02*
X46484Y-25133D01*
X45409Y-25851D01*
X44691Y-26926D01*
X44438Y-28194D01*
X44691Y-29462D01*
X45409Y-30537D01*
X46484Y-31255D01*
X47752Y-31508D01*
X49020Y-31255D01*
X50095Y-30537D01*
X50813Y-29462D01*
X51066Y-28194D01*
X50813Y-26926D01*
X50095Y-25851D01*
X49020Y-25133D01*
X47752Y-24880D01*
D02*
G37*
G36*
X96197Y-38151D02*
X94929Y-38403D01*
X93854Y-39121D01*
X93684Y-39377D01*
X92343Y-39657D01*
X91268Y-38939D01*
X90000Y-38686D01*
X88732Y-38939D01*
X87657Y-39657D01*
X86939Y-40732D01*
X86686Y-42000D01*
X86939Y-43268D01*
X87657Y-44343D01*
X88732Y-45061D01*
X90000Y-45314D01*
X91268Y-45061D01*
X92343Y-44343D01*
X92514Y-44088D01*
X93854Y-43808D01*
X94929Y-44526D01*
X96197Y-44778D01*
X97465Y-44526D01*
X98540Y-43808D01*
X99259Y-42733D01*
X99511Y-41464D01*
X99259Y-40196D01*
X98540Y-39121D01*
X97465Y-38403D01*
X96197Y-38151D01*
D02*
G37*
G36*
X149352Y-43930D02*
X148084Y-44183D01*
X147009Y-44901D01*
X146291Y-45976D01*
X146038Y-47244D01*
X146291Y-48512D01*
X147009Y-49587D01*
X148084Y-50305D01*
X149352Y-50558D01*
X150620Y-50305D01*
X151695Y-49587D01*
X152413Y-48512D01*
X152666Y-47244D01*
X152413Y-45976D01*
X151695Y-44901D01*
X150620Y-44183D01*
X149352Y-43930D01*
D02*
G37*
G36*
X20960Y-24688D02*
X19399Y-24999D01*
X18076Y-25883D01*
X17192Y-27206D01*
X16881Y-28767D01*
Y-31267D01*
X17192Y-32827D01*
X18076Y-34150D01*
X19399Y-35034D01*
X19836Y-35121D01*
X19966Y-36442D01*
X19427Y-36665D01*
X17861Y-37868D01*
X16658Y-39434D01*
X15903Y-41259D01*
X15645Y-43217D01*
X15903Y-45174D01*
X16658Y-46999D01*
X17861Y-48566D01*
X19427Y-49768D01*
X21252Y-50524D01*
X23210Y-50781D01*
X33210D01*
X35168Y-50524D01*
X36992Y-49768D01*
X38559Y-48566D01*
X39761Y-46999D01*
X40517Y-45174D01*
X40774Y-43217D01*
X40517Y-41259D01*
X39761Y-39434D01*
X38559Y-37868D01*
X36992Y-36665D01*
X35168Y-35910D01*
X33210Y-35652D01*
X23882D01*
X23497Y-34382D01*
X23844Y-34150D01*
X24728Y-32827D01*
X25038Y-31267D01*
Y-28767D01*
X24728Y-27206D01*
X23844Y-25883D01*
X22520Y-24999D01*
X20960Y-24688D01*
D02*
G37*
G36*
X-3540Y-35652D02*
X-16540D01*
X-18498Y-35910D01*
X-20323Y-36665D01*
X-21889Y-37868D01*
X-23092Y-39434D01*
X-23847Y-41259D01*
X-24105Y-43217D01*
X-23847Y-45174D01*
X-23092Y-46999D01*
X-21889Y-48566D01*
X-20323Y-49768D01*
X-18498Y-50524D01*
X-16540Y-50781D01*
X-3540D01*
X-1583Y-50524D01*
X242Y-49768D01*
X1809Y-48566D01*
X3011Y-46999D01*
X3767Y-45174D01*
X4024Y-43217D01*
X3767Y-41259D01*
X3011Y-39434D01*
X1809Y-37868D01*
X242Y-36665D01*
X-1583Y-35910D01*
X-3540Y-35652D01*
D02*
G37*
G36*
X201422Y-50280D02*
X200154Y-50533D01*
X199079Y-51251D01*
X198361Y-52326D01*
X198108Y-53594D01*
X198361Y-54862D01*
X199079Y-55937D01*
X200154Y-56655D01*
X201422Y-56908D01*
X202690Y-56655D01*
X203765Y-55937D01*
X204483Y-54862D01*
X204736Y-53594D01*
X204483Y-52326D01*
X203765Y-51251D01*
X202690Y-50533D01*
X201422Y-50280D01*
D02*
G37*
%LPD*%
D54*
X68265Y34000D02*
X70273Y31992D01*
X58000Y34000D02*
X68265D01*
X70273Y31992D02*
X120003D01*
X127127Y39116D01*
X189992D01*
D56*
X58000Y34000D02*
D03*
X71000Y-30000D02*
D03*
X184912Y2286D02*
D03*
X141732Y-29464D02*
D03*
X71894Y43647D02*
D03*
X59182Y9906D02*
D03*
X154432Y-54097D02*
D03*
X132958Y-38947D02*
D03*
X183642Y45466D02*
D03*
X149352Y14986D02*
D03*
X189992Y39116D02*
D03*
M02*
