G04*
G04 #@! TF.GenerationSoftware,Altium Limited,Altium Designer,22.10.1 (41)*
G04*
G04 Layer_Color=16711935*
%FSLAX44Y44*%
%MOMM*%
G71*
G04*
G04 #@! TF.SameCoordinates,6AC466C0-41EF-44D2-8528-C36EB44BF29F*
G04*
G04*
G04 #@! TF.FilePolarity,Positive*
G04*
G01*
G75*
%ADD11C,0.2000*%
G36*
X1727Y-779D02*
X1720D01*
X1692D01*
X1658Y-786D01*
X1609D01*
X1547Y-793D01*
X1477Y-800D01*
X1325Y-821D01*
X1158Y-856D01*
X992Y-904D01*
X916Y-932D01*
X839Y-966D01*
X777Y-1008D01*
X721Y-1050D01*
X708Y-1064D01*
X680Y-1098D01*
X638Y-1154D01*
X590Y-1230D01*
X541Y-1327D01*
X500Y-1445D01*
X472Y-1577D01*
X458Y-1729D01*
Y-1785D01*
X465Y-1840D01*
X479Y-1917D01*
X493Y-2007D01*
X520Y-2097D01*
X555Y-2187D01*
X604Y-2277D01*
X611Y-2291D01*
X631Y-2319D01*
X666Y-2353D01*
X708Y-2409D01*
X763Y-2457D01*
X833Y-2513D01*
X909Y-2561D01*
X999Y-2603D01*
X1013Y-2610D01*
X1047Y-2617D01*
X1110Y-2631D01*
X1193Y-2652D01*
X1304Y-2665D01*
X1443Y-2679D01*
X1602Y-2686D01*
X1699Y-2693D01*
X1796D01*
X6206D01*
Y-3539D01*
X1845D01*
X1838D01*
X1810D01*
X1769D01*
X1713D01*
X1644Y-3532D01*
X1567D01*
X1477Y-3525D01*
X1387Y-3511D01*
X1186Y-3491D01*
X978Y-3456D01*
X777Y-3407D01*
X687Y-3373D01*
X597Y-3338D01*
X590D01*
X576Y-3331D01*
X555Y-3317D01*
X527Y-3303D01*
X444Y-3255D01*
X347Y-3185D01*
X243Y-3102D01*
X132Y-2998D01*
X28Y-2867D01*
X-69Y-2721D01*
Y-2714D01*
X-76Y-2700D01*
X-90Y-2679D01*
X-104Y-2645D01*
X-125Y-2610D01*
X-138Y-2561D01*
X-159Y-2506D01*
X-180Y-2444D01*
X-228Y-2298D01*
X-263Y-2131D01*
X-291Y-1944D01*
X-298Y-1736D01*
Y-1653D01*
X-291Y-1597D01*
X-284Y-1528D01*
X-270Y-1445D01*
X-256Y-1355D01*
X-235Y-1258D01*
X-215Y-1154D01*
X-180Y-1050D01*
X-145Y-939D01*
X-97Y-835D01*
X-41Y-724D01*
X21Y-627D01*
X97Y-530D01*
X181Y-439D01*
X188Y-433D01*
X201Y-419D01*
X229Y-398D01*
X271Y-370D01*
X319Y-336D01*
X382Y-301D01*
X458Y-259D01*
X541Y-218D01*
X638Y-183D01*
X742Y-141D01*
X860Y-107D01*
X992Y-72D01*
X1131Y-51D01*
X1283Y-30D01*
X1443Y-16D01*
X1616D01*
X1727Y-779D01*
D02*
G37*
G36*
X4626Y-5210D02*
X4632Y-5231D01*
X4653Y-5266D01*
X4674Y-5314D01*
X4702Y-5370D01*
X4743Y-5439D01*
X4785Y-5515D01*
X4827Y-5592D01*
X4938Y-5772D01*
X5069Y-5966D01*
X5208Y-6167D01*
X5367Y-6354D01*
X5374Y-6361D01*
X5388Y-6375D01*
X5409Y-6403D01*
X5444Y-6438D01*
X5485Y-6472D01*
X5527Y-6521D01*
X5645Y-6625D01*
X5770Y-6743D01*
X5915Y-6861D01*
X6068Y-6965D01*
X6227Y-7055D01*
Y-7561D01*
X-194D01*
Y-6777D01*
X4806D01*
X4792Y-6763D01*
X4757Y-6729D01*
X4709Y-6666D01*
X4639Y-6576D01*
X4556Y-6472D01*
X4466Y-6341D01*
X4369Y-6195D01*
X4265Y-6029D01*
Y-6022D01*
X4251Y-6008D01*
X4237Y-5987D01*
X4223Y-5952D01*
X4196Y-5911D01*
X4175Y-5862D01*
X4112Y-5751D01*
X4050Y-5626D01*
X3981Y-5488D01*
X3918Y-5342D01*
X3863Y-5203D01*
X4618D01*
X4626Y-5210D01*
D02*
G37*
G36*
X129581Y-52984D02*
X127196D01*
X127127Y-52977D01*
X127044D01*
X126960Y-52971D01*
X126773Y-52964D01*
X126586Y-52943D01*
X126399Y-52922D01*
X126315Y-52901D01*
X126239Y-52887D01*
X126232D01*
X126211Y-52880D01*
X126184Y-52874D01*
X126149Y-52860D01*
X126100Y-52846D01*
X126045Y-52832D01*
X125913Y-52783D01*
X125768Y-52721D01*
X125615Y-52645D01*
X125456Y-52548D01*
X125303Y-52430D01*
X125296Y-52423D01*
X125282Y-52409D01*
X125254Y-52388D01*
X125220Y-52353D01*
X125178Y-52312D01*
X125130Y-52256D01*
X125074Y-52201D01*
X125019Y-52132D01*
X124956Y-52055D01*
X124894Y-51972D01*
X124831Y-51882D01*
X124769Y-51785D01*
X124651Y-51570D01*
X124547Y-51334D01*
Y-51327D01*
X124533Y-51306D01*
X124526Y-51265D01*
X124506Y-51216D01*
X124485Y-51154D01*
X124464Y-51077D01*
X124443Y-50994D01*
X124415Y-50897D01*
X124395Y-50786D01*
X124374Y-50668D01*
X124353Y-50544D01*
X124332Y-50412D01*
X124311Y-50273D01*
X124305Y-50128D01*
X124291Y-49816D01*
Y-49809D01*
Y-49781D01*
Y-49746D01*
Y-49691D01*
X124298Y-49628D01*
Y-49552D01*
X124305Y-49469D01*
X124311Y-49379D01*
X124332Y-49178D01*
X124367Y-48963D01*
X124409Y-48741D01*
X124464Y-48519D01*
Y-48512D01*
X124471Y-48491D01*
X124485Y-48463D01*
X124492Y-48429D01*
X124513Y-48380D01*
X124533Y-48325D01*
X124582Y-48193D01*
X124644Y-48047D01*
X124720Y-47888D01*
X124804Y-47735D01*
X124901Y-47590D01*
Y-47583D01*
X124915Y-47576D01*
X124929Y-47555D01*
X124949Y-47527D01*
X124998Y-47465D01*
X125074Y-47382D01*
X125157Y-47284D01*
X125254Y-47188D01*
X125365Y-47097D01*
X125483Y-47007D01*
X125490D01*
X125497Y-47000D01*
X125539Y-46972D01*
X125608Y-46938D01*
X125698Y-46889D01*
X125809Y-46841D01*
X125941Y-46785D01*
X126094Y-46737D01*
X126253Y-46688D01*
X126260D01*
X126274Y-46681D01*
X126295D01*
X126329Y-46674D01*
X126371Y-46667D01*
X126426Y-46653D01*
X126482Y-46647D01*
X126544Y-46640D01*
X126697Y-46619D01*
X126870Y-46598D01*
X127064Y-46591D01*
X127272Y-46584D01*
X129581D01*
Y-52984D01*
D02*
G37*
G36*
X123549Y-46598D02*
Y-46633D01*
Y-46688D01*
X123542Y-46757D01*
X123535Y-46841D01*
X123514Y-46931D01*
X123493Y-47028D01*
X123458Y-47125D01*
Y-47132D01*
X123451Y-47146D01*
X123445Y-47167D01*
X123431Y-47201D01*
X123410Y-47236D01*
X123389Y-47284D01*
X123334Y-47396D01*
X123264Y-47527D01*
X123174Y-47673D01*
X123070Y-47825D01*
X122945Y-47978D01*
X122938Y-47985D01*
X122931Y-47999D01*
X122911Y-48020D01*
X122876Y-48054D01*
X122841Y-48089D01*
X122793Y-48137D01*
X122744Y-48193D01*
X122682Y-48255D01*
X122612Y-48325D01*
X122536Y-48394D01*
X122453Y-48477D01*
X122356Y-48560D01*
X122259Y-48651D01*
X122148Y-48741D01*
X122037Y-48838D01*
X121912Y-48942D01*
X121898Y-48949D01*
X121864Y-48983D01*
X121815Y-49025D01*
X121746Y-49087D01*
X121663Y-49157D01*
X121565Y-49240D01*
X121454Y-49330D01*
X121343Y-49434D01*
X121108Y-49649D01*
X120879Y-49878D01*
X120768Y-49989D01*
X120664Y-50100D01*
X120574Y-50204D01*
X120498Y-50301D01*
X120491Y-50308D01*
X120484Y-50322D01*
X120463Y-50349D01*
X120442Y-50384D01*
X120407Y-50433D01*
X120380Y-50481D01*
X120310Y-50606D01*
X120241Y-50752D01*
X120179Y-50911D01*
X120137Y-51077D01*
X120130Y-51161D01*
X120123Y-51244D01*
Y-51251D01*
Y-51265D01*
Y-51293D01*
X120130Y-51320D01*
Y-51362D01*
X120144Y-51410D01*
X120165Y-51514D01*
X120206Y-51639D01*
X120269Y-51771D01*
X120303Y-51840D01*
X120352Y-51903D01*
X120400Y-51965D01*
X120463Y-52028D01*
X120470Y-52035D01*
X120477Y-52041D01*
X120498Y-52055D01*
X120525Y-52076D01*
X120560Y-52104D01*
X120602Y-52132D01*
X120699Y-52194D01*
X120830Y-52249D01*
X120976Y-52305D01*
X121149Y-52340D01*
X121247Y-52353D01*
X121399D01*
X121441Y-52347D01*
X121489D01*
X121545Y-52333D01*
X121670Y-52312D01*
X121815Y-52270D01*
X121968Y-52208D01*
X122044Y-52166D01*
X122120Y-52125D01*
X122190Y-52069D01*
X122259Y-52007D01*
X122266Y-52000D01*
X122273Y-51993D01*
X122287Y-51972D01*
X122314Y-51944D01*
X122335Y-51910D01*
X122363Y-51868D01*
X122397Y-51820D01*
X122425Y-51764D01*
X122460Y-51702D01*
X122488Y-51632D01*
X122543Y-51466D01*
X122585Y-51286D01*
X122592Y-51182D01*
X122599Y-51071D01*
X123403Y-51154D01*
Y-51168D01*
X123396Y-51195D01*
X123389Y-51237D01*
X123382Y-51299D01*
X123368Y-51376D01*
X123348Y-51466D01*
X123327Y-51563D01*
X123292Y-51667D01*
X123257Y-51771D01*
X123216Y-51889D01*
X123160Y-52000D01*
X123105Y-52111D01*
X123035Y-52229D01*
X122959Y-52333D01*
X122876Y-52437D01*
X122779Y-52527D01*
X122772Y-52534D01*
X122751Y-52548D01*
X122724Y-52568D01*
X122682Y-52603D01*
X122626Y-52638D01*
X122557Y-52679D01*
X122481Y-52721D01*
X122391Y-52769D01*
X122294Y-52811D01*
X122183Y-52853D01*
X122065Y-52894D01*
X121933Y-52929D01*
X121794Y-52964D01*
X121649Y-52984D01*
X121489Y-52998D01*
X121323Y-53005D01*
X121233D01*
X121170Y-52998D01*
X121094Y-52991D01*
X121004Y-52977D01*
X120900Y-52964D01*
X120796Y-52943D01*
X120678Y-52915D01*
X120560Y-52880D01*
X120435Y-52839D01*
X120317Y-52790D01*
X120192Y-52728D01*
X120075Y-52659D01*
X119964Y-52582D01*
X119860Y-52492D01*
X119853Y-52485D01*
X119839Y-52471D01*
X119811Y-52437D01*
X119776Y-52402D01*
X119735Y-52353D01*
X119686Y-52291D01*
X119638Y-52222D01*
X119589Y-52139D01*
X119541Y-52055D01*
X119492Y-51958D01*
X119444Y-51854D01*
X119402Y-51743D01*
X119367Y-51618D01*
X119340Y-51494D01*
X119326Y-51362D01*
X119319Y-51223D01*
Y-51216D01*
Y-51209D01*
Y-51189D01*
Y-51161D01*
X119326Y-51084D01*
X119340Y-50987D01*
X119360Y-50869D01*
X119388Y-50745D01*
X119423Y-50606D01*
X119478Y-50467D01*
Y-50460D01*
X119485Y-50454D01*
X119492Y-50433D01*
X119506Y-50405D01*
X119548Y-50329D01*
X119603Y-50232D01*
X119679Y-50114D01*
X119769Y-49982D01*
X119874Y-49843D01*
X120005Y-49691D01*
X120012Y-49684D01*
X120019Y-49670D01*
X120047Y-49649D01*
X120075Y-49614D01*
X120116Y-49573D01*
X120165Y-49524D01*
X120220Y-49462D01*
X120289Y-49399D01*
X120373Y-49323D01*
X120463Y-49240D01*
X120560Y-49143D01*
X120671Y-49046D01*
X120789Y-48935D01*
X120921Y-48824D01*
X121066Y-48699D01*
X121219Y-48567D01*
X121226Y-48560D01*
X121247Y-48540D01*
X121288Y-48512D01*
X121330Y-48470D01*
X121392Y-48422D01*
X121454Y-48366D01*
X121600Y-48242D01*
X121753Y-48110D01*
X121898Y-47971D01*
X121968Y-47909D01*
X122030Y-47853D01*
X122086Y-47798D01*
X122127Y-47756D01*
X122134Y-47749D01*
X122162Y-47721D01*
X122197Y-47680D01*
X122245Y-47624D01*
X122301Y-47562D01*
X122356Y-47493D01*
X122467Y-47340D01*
X119312D01*
Y-46584D01*
X123549D01*
Y-46598D01*
D02*
G37*
G36*
X92671Y-50396D02*
X91888D01*
Y-45397D01*
X91874Y-45411D01*
X91839Y-45445D01*
X91777Y-45494D01*
X91687Y-45563D01*
X91583Y-45647D01*
X91451Y-45737D01*
X91305Y-45834D01*
X91139Y-45938D01*
X91132D01*
X91118Y-45952D01*
X91097Y-45965D01*
X91063Y-45979D01*
X91021Y-46007D01*
X90972Y-46028D01*
X90862Y-46090D01*
X90737Y-46153D01*
X90598Y-46222D01*
X90452Y-46284D01*
X90314Y-46340D01*
Y-45584D01*
X90321Y-45577D01*
X90342Y-45570D01*
X90376Y-45549D01*
X90425Y-45529D01*
X90480Y-45501D01*
X90550Y-45459D01*
X90626Y-45418D01*
X90702Y-45376D01*
X90882Y-45265D01*
X91077Y-45133D01*
X91278Y-44995D01*
X91465Y-44835D01*
X91472Y-44828D01*
X91486Y-44814D01*
X91513Y-44794D01*
X91548Y-44759D01*
X91583Y-44717D01*
X91631Y-44676D01*
X91735Y-44558D01*
X91853Y-44433D01*
X91971Y-44287D01*
X92075Y-44135D01*
X92165Y-43975D01*
X92671D01*
Y-50396D01*
D02*
G37*
G36*
X86028Y-44003D02*
X86112D01*
X86195Y-44010D01*
X86382Y-44017D01*
X86569Y-44038D01*
X86756Y-44059D01*
X86840Y-44079D01*
X86916Y-44093D01*
X86923D01*
X86944Y-44100D01*
X86972Y-44107D01*
X87006Y-44121D01*
X87055Y-44135D01*
X87110Y-44149D01*
X87242Y-44197D01*
X87388Y-44260D01*
X87540Y-44336D01*
X87700Y-44433D01*
X87852Y-44551D01*
X87859Y-44558D01*
X87873Y-44572D01*
X87901Y-44592D01*
X87935Y-44627D01*
X87977Y-44669D01*
X88026Y-44724D01*
X88081Y-44780D01*
X88137Y-44849D01*
X88199Y-44925D01*
X88261Y-45009D01*
X88324Y-45099D01*
X88386Y-45196D01*
X88504Y-45411D01*
X88608Y-45647D01*
Y-45654D01*
X88622Y-45674D01*
X88629Y-45716D01*
X88650Y-45764D01*
X88670Y-45827D01*
X88691Y-45903D01*
X88712Y-45986D01*
X88740Y-46083D01*
X88760Y-46194D01*
X88781Y-46312D01*
X88802Y-46437D01*
X88823Y-46569D01*
X88844Y-46708D01*
X88851Y-46853D01*
X88864Y-47165D01*
Y-47172D01*
Y-47200D01*
Y-47234D01*
Y-47290D01*
X88858Y-47352D01*
Y-47429D01*
X88851Y-47512D01*
X88844Y-47602D01*
X88823Y-47803D01*
X88788Y-48018D01*
X88747Y-48240D01*
X88691Y-48462D01*
Y-48469D01*
X88684Y-48489D01*
X88670Y-48517D01*
X88663Y-48552D01*
X88643Y-48601D01*
X88622Y-48656D01*
X88573Y-48788D01*
X88511Y-48933D01*
X88435Y-49093D01*
X88351Y-49245D01*
X88254Y-49391D01*
Y-49398D01*
X88240Y-49405D01*
X88227Y-49426D01*
X88206Y-49453D01*
X88157Y-49516D01*
X88081Y-49599D01*
X87998Y-49696D01*
X87901Y-49793D01*
X87790Y-49883D01*
X87672Y-49974D01*
X87665D01*
X87658Y-49980D01*
X87616Y-50008D01*
X87547Y-50043D01*
X87457Y-50091D01*
X87346Y-50140D01*
X87214Y-50195D01*
X87062Y-50244D01*
X86902Y-50292D01*
X86895D01*
X86881Y-50299D01*
X86861D01*
X86826Y-50306D01*
X86784Y-50313D01*
X86729Y-50327D01*
X86673Y-50334D01*
X86611Y-50341D01*
X86458Y-50362D01*
X86285Y-50383D01*
X86091Y-50389D01*
X85883Y-50396D01*
X83574D01*
Y-43996D01*
X85959D01*
X86028Y-44003D01*
D02*
G37*
%LPC*%
G36*
X128735Y-47340D02*
X127265D01*
X127210Y-47347D01*
X127148D01*
X127009Y-47354D01*
X126849Y-47368D01*
X126683Y-47389D01*
X126523Y-47416D01*
X126378Y-47451D01*
X126371D01*
X126364Y-47458D01*
X126343Y-47465D01*
X126315Y-47472D01*
X126253Y-47499D01*
X126170Y-47534D01*
X126080Y-47583D01*
X125983Y-47638D01*
X125885Y-47708D01*
X125802Y-47784D01*
X125795Y-47791D01*
X125788Y-47798D01*
X125754Y-47839D01*
X125698Y-47909D01*
X125629Y-47999D01*
X125560Y-48117D01*
X125483Y-48255D01*
X125407Y-48415D01*
X125338Y-48595D01*
Y-48602D01*
X125331Y-48616D01*
X125324Y-48644D01*
X125310Y-48685D01*
X125296Y-48734D01*
X125282Y-48796D01*
X125268Y-48865D01*
X125247Y-48942D01*
X125234Y-49025D01*
X125220Y-49122D01*
X125206Y-49219D01*
X125192Y-49330D01*
X125171Y-49566D01*
X125164Y-49829D01*
Y-49843D01*
Y-49871D01*
Y-49927D01*
X125171Y-49996D01*
Y-50079D01*
X125178Y-50176D01*
X125192Y-50280D01*
X125206Y-50398D01*
X125247Y-50648D01*
X125303Y-50904D01*
X125386Y-51147D01*
X125442Y-51265D01*
X125497Y-51369D01*
X125504Y-51376D01*
X125511Y-51390D01*
X125532Y-51417D01*
X125560Y-51459D01*
X125587Y-51501D01*
X125629Y-51549D01*
X125719Y-51660D01*
X125837Y-51785D01*
X125976Y-51903D01*
X126128Y-52014D01*
X126211Y-52055D01*
X126301Y-52097D01*
X126308D01*
X126315Y-52104D01*
X126336Y-52111D01*
X126364Y-52118D01*
X126405Y-52125D01*
X126447Y-52139D01*
X126503Y-52152D01*
X126565Y-52166D01*
X126634Y-52173D01*
X126718Y-52187D01*
X126808Y-52201D01*
X126905Y-52208D01*
X127016Y-52215D01*
X127134Y-52222D01*
X127258Y-52229D01*
X128735D01*
Y-47340D01*
D02*
G37*
G36*
X85897Y-44752D02*
X84420D01*
Y-49641D01*
X85890D01*
X85945Y-49634D01*
X86008D01*
X86146Y-49627D01*
X86306Y-49613D01*
X86472Y-49592D01*
X86632Y-49564D01*
X86777Y-49530D01*
X86784D01*
X86791Y-49523D01*
X86812Y-49516D01*
X86840Y-49509D01*
X86902Y-49481D01*
X86985Y-49447D01*
X87076Y-49398D01*
X87173Y-49342D01*
X87270Y-49273D01*
X87353Y-49197D01*
X87360Y-49190D01*
X87367Y-49183D01*
X87401Y-49141D01*
X87457Y-49072D01*
X87526Y-48982D01*
X87596Y-48864D01*
X87672Y-48725D01*
X87748Y-48566D01*
X87817Y-48386D01*
Y-48379D01*
X87824Y-48365D01*
X87831Y-48337D01*
X87845Y-48295D01*
X87859Y-48247D01*
X87873Y-48184D01*
X87887Y-48115D01*
X87908Y-48039D01*
X87921Y-47956D01*
X87935Y-47859D01*
X87949Y-47761D01*
X87963Y-47650D01*
X87984Y-47415D01*
X87991Y-47151D01*
Y-47137D01*
Y-47110D01*
Y-47054D01*
X87984Y-46985D01*
Y-46902D01*
X87977Y-46804D01*
X87963Y-46701D01*
X87949Y-46583D01*
X87908Y-46333D01*
X87852Y-46076D01*
X87769Y-45834D01*
X87713Y-45716D01*
X87658Y-45612D01*
X87651Y-45605D01*
X87644Y-45591D01*
X87623Y-45563D01*
X87596Y-45522D01*
X87568Y-45480D01*
X87526Y-45432D01*
X87436Y-45321D01*
X87318Y-45196D01*
X87179Y-45078D01*
X87027Y-44967D01*
X86944Y-44925D01*
X86854Y-44884D01*
X86847D01*
X86840Y-44877D01*
X86819Y-44870D01*
X86791Y-44863D01*
X86750Y-44856D01*
X86708Y-44842D01*
X86652Y-44828D01*
X86590Y-44814D01*
X86521Y-44808D01*
X86438Y-44794D01*
X86347Y-44780D01*
X86250Y-44773D01*
X86139Y-44766D01*
X86021Y-44759D01*
X85897Y-44752D01*
D02*
G37*
%LPD*%
D11*
X-37540Y50683D02*
X40710D01*
X-37540Y-50717D02*
Y50683D01*
Y-50717D02*
X40710D01*
Y50683D01*
X142081Y-53967D02*
Y-42967D01*
X117081D02*
X142081D01*
X117081Y-53967D02*
Y-42967D01*
Y-53967D02*
X142081D01*
X71074Y-43014D02*
X96074D01*
Y-54014D02*
Y-43014D01*
X71074Y-54014D02*
X96074D01*
X71074D02*
Y-43014D01*
X61362Y42250D02*
Y49750D01*
X46638D02*
X61362D01*
X46638Y42250D02*
Y49750D01*
Y42250D02*
X61362D01*
M02*
