G04*
G04 #@! TF.GenerationSoftware,Altium Limited,Altium Designer,22.10.1 (41)*
G04*
G04 Layer_Color=32896*
%FSLAX44Y44*%
%MOMM*%
G71*
G04*
G04 #@! TF.SameCoordinates,6AC466C0-41EF-44D2-8528-C36EB44BF29F*
G04*
G04*
G04 #@! TF.FilePolarity,Positive*
G04*
G01*
G75*
%ADD11C,0.2000*%
G36*
X68699Y22560D02*
X68866Y22553D01*
X69185Y22511D01*
X69337Y22490D01*
X69476Y22463D01*
X69608Y22428D01*
X69732Y22400D01*
X69844Y22366D01*
X69948Y22338D01*
X70031Y22310D01*
X70107Y22283D01*
X70162Y22262D01*
X70211Y22248D01*
X70239Y22241D01*
X70246Y22234D01*
X70391Y22165D01*
X70530Y22095D01*
X70655Y22019D01*
X70773Y21936D01*
X70884Y21853D01*
X70981Y21776D01*
X71071Y21693D01*
X71154Y21617D01*
X71230Y21541D01*
X71293Y21471D01*
X71341Y21409D01*
X71390Y21353D01*
X71424Y21312D01*
X71445Y21277D01*
X71459Y21256D01*
X71466Y21249D01*
X71542Y21124D01*
X71605Y20993D01*
X71660Y20854D01*
X71709Y20708D01*
X71743Y20570D01*
X71778Y20431D01*
X71806Y20292D01*
X71827Y20161D01*
X71848Y20036D01*
X71861Y19925D01*
X71868Y19821D01*
X71875Y19738D01*
X71882Y19661D01*
Y19564D01*
X71875Y19377D01*
X71861Y19204D01*
X71834Y19037D01*
X71799Y18878D01*
X71757Y18725D01*
X71709Y18587D01*
X71660Y18462D01*
X71612Y18344D01*
X71563Y18233D01*
X71515Y18143D01*
X71466Y18060D01*
X71424Y17997D01*
X71390Y17942D01*
X71362Y17907D01*
X71348Y17879D01*
X71341Y17872D01*
X71230Y17747D01*
X71112Y17630D01*
X70988Y17526D01*
X70863Y17428D01*
X70731Y17338D01*
X70592Y17262D01*
X70468Y17193D01*
X70336Y17130D01*
X70218Y17075D01*
X70107Y17033D01*
X70003Y16992D01*
X69920Y16964D01*
X69844Y16936D01*
X69795Y16922D01*
X69760Y16909D01*
X69746D01*
X69531Y17754D01*
X69677Y17789D01*
X69816Y17838D01*
X69948Y17886D01*
X70065Y17935D01*
X70176Y17990D01*
X70273Y18046D01*
X70363Y18101D01*
X70447Y18157D01*
X70516Y18212D01*
X70578Y18261D01*
X70634Y18309D01*
X70676Y18344D01*
X70710Y18378D01*
X70731Y18406D01*
X70745Y18420D01*
X70752Y18427D01*
X70821Y18524D01*
X70884Y18621D01*
X70939Y18718D01*
X70988Y18822D01*
X71029Y18926D01*
X71064Y19023D01*
X71112Y19218D01*
X71126Y19301D01*
X71140Y19384D01*
X71147Y19453D01*
X71154Y19516D01*
X71161Y19564D01*
Y19634D01*
X71154Y19745D01*
X71147Y19849D01*
X71112Y20050D01*
X71064Y20237D01*
X71008Y20396D01*
X70981Y20466D01*
X70960Y20528D01*
X70932Y20584D01*
X70911Y20632D01*
X70890Y20674D01*
X70877Y20701D01*
X70863Y20715D01*
Y20722D01*
X70800Y20812D01*
X70738Y20896D01*
X70592Y21048D01*
X70447Y21173D01*
X70294Y21277D01*
X70162Y21353D01*
X70107Y21388D01*
X70051Y21416D01*
X70010Y21430D01*
X69982Y21443D01*
X69961Y21457D01*
X69954D01*
X69719Y21534D01*
X69476Y21596D01*
X69233Y21638D01*
X69122Y21651D01*
X69011Y21665D01*
X68907Y21672D01*
X68817Y21679D01*
X68734Y21686D01*
X68665D01*
X68602Y21693D01*
X68561D01*
X68533D01*
X68526D01*
X68290Y21686D01*
X68068Y21665D01*
X67860Y21631D01*
X67763Y21617D01*
X67673Y21596D01*
X67597Y21575D01*
X67520Y21561D01*
X67458Y21541D01*
X67403Y21527D01*
X67361Y21520D01*
X67326Y21506D01*
X67306Y21499D01*
X67299D01*
X67084Y21409D01*
X66896Y21305D01*
X66737Y21194D01*
X66668Y21131D01*
X66598Y21076D01*
X66543Y21021D01*
X66494Y20972D01*
X66446Y20923D01*
X66411Y20889D01*
X66383Y20854D01*
X66363Y20826D01*
X66356Y20812D01*
X66349Y20805D01*
X66286Y20708D01*
X66231Y20611D01*
X66182Y20507D01*
X66141Y20403D01*
X66078Y20195D01*
X66030Y19994D01*
X66016Y19911D01*
X66009Y19828D01*
X66002Y19751D01*
X65995Y19689D01*
X65988Y19634D01*
Y19446D01*
X66002Y19335D01*
X66037Y19127D01*
X66092Y18947D01*
X66120Y18871D01*
X66147Y18795D01*
X66175Y18725D01*
X66203Y18670D01*
X66231Y18621D01*
X66259Y18580D01*
X66279Y18545D01*
X66293Y18524D01*
X66300Y18510D01*
X66307Y18503D01*
X66369Y18427D01*
X66439Y18351D01*
X66598Y18226D01*
X66772Y18108D01*
X66938Y18018D01*
X67091Y17949D01*
X67153Y17914D01*
X67208Y17893D01*
X67257Y17872D01*
X67299Y17865D01*
X67319Y17852D01*
X67326D01*
X67132Y17019D01*
X66973Y17075D01*
X66820Y17137D01*
X66674Y17200D01*
X66543Y17276D01*
X66418Y17345D01*
X66307Y17422D01*
X66203Y17498D01*
X66113Y17574D01*
X66030Y17650D01*
X65960Y17713D01*
X65898Y17775D01*
X65849Y17831D01*
X65808Y17872D01*
X65780Y17907D01*
X65766Y17928D01*
X65759Y17935D01*
X65669Y18060D01*
X65600Y18191D01*
X65530Y18323D01*
X65475Y18462D01*
X65426Y18600D01*
X65385Y18732D01*
X65357Y18864D01*
X65329Y18989D01*
X65308Y19107D01*
X65295Y19211D01*
X65281Y19308D01*
X65274Y19391D01*
X65267Y19460D01*
Y19550D01*
X65274Y19710D01*
X65281Y19862D01*
X65329Y20147D01*
X65357Y20285D01*
X65392Y20410D01*
X65426Y20535D01*
X65461Y20646D01*
X65496Y20743D01*
X65530Y20833D01*
X65565Y20916D01*
X65593Y20979D01*
X65620Y21034D01*
X65641Y21069D01*
X65648Y21097D01*
X65655Y21104D01*
X65732Y21228D01*
X65815Y21353D01*
X65905Y21464D01*
X65995Y21568D01*
X66092Y21665D01*
X66182Y21755D01*
X66279Y21832D01*
X66363Y21908D01*
X66453Y21970D01*
X66529Y22026D01*
X66598Y22074D01*
X66661Y22116D01*
X66716Y22144D01*
X66751Y22165D01*
X66779Y22178D01*
X66785Y22185D01*
X66924Y22255D01*
X67077Y22310D01*
X67222Y22359D01*
X67368Y22407D01*
X67666Y22477D01*
X67805Y22497D01*
X67937Y22518D01*
X68061Y22532D01*
X68172Y22546D01*
X68276Y22553D01*
X68366Y22560D01*
X68436Y22567D01*
X68491D01*
X68519D01*
X68533D01*
X68699Y22560D01*
D02*
G37*
G36*
X67666Y15445D02*
X67604Y15300D01*
X67534Y15161D01*
X67472Y15036D01*
X67410Y14925D01*
X67389Y14877D01*
X67361Y14835D01*
X67347Y14800D01*
X67333Y14780D01*
X67319Y14766D01*
Y14759D01*
X67215Y14592D01*
X67118Y14447D01*
X67028Y14315D01*
X66945Y14211D01*
X66876Y14121D01*
X66827Y14059D01*
X66792Y14024D01*
X66779Y14010D01*
X71778D01*
Y13226D01*
X65357D01*
Y13733D01*
X65517Y13823D01*
X65669Y13927D01*
X65815Y14045D01*
X65939Y14162D01*
X66057Y14267D01*
X66099Y14315D01*
X66141Y14350D01*
X66175Y14384D01*
X66196Y14412D01*
X66210Y14426D01*
X66217Y14433D01*
X66376Y14620D01*
X66515Y14821D01*
X66647Y15015D01*
X66758Y15196D01*
X66799Y15272D01*
X66841Y15348D01*
X66883Y15418D01*
X66910Y15473D01*
X66931Y15522D01*
X66952Y15556D01*
X66959Y15577D01*
X66966Y15584D01*
X67722D01*
X67666Y15445D01*
D02*
G37*
G36*
X169424Y-39561D02*
X169486Y-39568D01*
X169562Y-39575D01*
X169645Y-39589D01*
X169736Y-39610D01*
X169930Y-39658D01*
X170027Y-39693D01*
X170131Y-39727D01*
X170235Y-39776D01*
X170339Y-39832D01*
X170436Y-39894D01*
X170526Y-39970D01*
X170533Y-39977D01*
X170547Y-39991D01*
X170568Y-40012D01*
X170602Y-40046D01*
X170637Y-40088D01*
X170679Y-40143D01*
X170727Y-40206D01*
X170776Y-40275D01*
X170824Y-40352D01*
X170873Y-40442D01*
X170914Y-40539D01*
X170963Y-40643D01*
X171005Y-40754D01*
X171039Y-40872D01*
X171067Y-41003D01*
X171088Y-41142D01*
X170332Y-41204D01*
Y-41198D01*
X170325Y-41184D01*
Y-41156D01*
X170311Y-41114D01*
X170304Y-41073D01*
X170290Y-41024D01*
X170256Y-40906D01*
X170207Y-40781D01*
X170145Y-40657D01*
X170061Y-40539D01*
X170020Y-40483D01*
X169971Y-40435D01*
X169957Y-40428D01*
X169923Y-40400D01*
X169860Y-40359D01*
X169784Y-40317D01*
X169680Y-40275D01*
X169562Y-40234D01*
X169430Y-40206D01*
X169278Y-40199D01*
X169216D01*
X169146Y-40206D01*
X169063Y-40220D01*
X168966Y-40241D01*
X168862Y-40268D01*
X168751Y-40303D01*
X168647Y-40359D01*
X168633Y-40365D01*
X168598Y-40386D01*
X168550Y-40428D01*
X168487Y-40476D01*
X168418Y-40539D01*
X168342Y-40615D01*
X168265Y-40705D01*
X168196Y-40802D01*
X168189Y-40816D01*
X168168Y-40851D01*
X168134Y-40913D01*
X168092Y-41003D01*
X168050Y-41107D01*
X168002Y-41232D01*
X167953Y-41385D01*
X167905Y-41551D01*
Y-41558D01*
X167898Y-41572D01*
X167891Y-41600D01*
X167884Y-41634D01*
X167877Y-41676D01*
X167870Y-41725D01*
X167856Y-41787D01*
X167843Y-41849D01*
X167822Y-41995D01*
X167808Y-42154D01*
X167794Y-42328D01*
X167787Y-42508D01*
Y-42522D01*
Y-42550D01*
Y-42598D01*
Y-42661D01*
X167801Y-42654D01*
X167808Y-42633D01*
X167829Y-42605D01*
X167884Y-42536D01*
X167953Y-42453D01*
X168050Y-42355D01*
X168162Y-42252D01*
X168286Y-42154D01*
X168432Y-42057D01*
X168439D01*
X168453Y-42050D01*
X168473Y-42036D01*
X168501Y-42023D01*
X168543Y-42002D01*
X168584Y-41988D01*
X168695Y-41946D01*
X168827Y-41898D01*
X168980Y-41863D01*
X169146Y-41835D01*
X169319Y-41828D01*
X169354D01*
X169396Y-41835D01*
X169451D01*
X169521Y-41849D01*
X169597Y-41856D01*
X169687Y-41877D01*
X169784Y-41898D01*
X169888Y-41933D01*
X169992Y-41967D01*
X170103Y-42016D01*
X170214Y-42071D01*
X170332Y-42134D01*
X170443Y-42210D01*
X170554Y-42300D01*
X170658Y-42397D01*
X170665Y-42404D01*
X170679Y-42425D01*
X170706Y-42460D01*
X170741Y-42501D01*
X170783Y-42557D01*
X170831Y-42626D01*
X170880Y-42709D01*
X170928Y-42806D01*
X170984Y-42903D01*
X171032Y-43021D01*
X171081Y-43146D01*
X171122Y-43278D01*
X171157Y-43423D01*
X171185Y-43583D01*
X171199Y-43742D01*
X171206Y-43916D01*
Y-43930D01*
Y-43957D01*
X171199Y-44013D01*
Y-44075D01*
X171185Y-44158D01*
X171178Y-44255D01*
X171157Y-44359D01*
X171136Y-44477D01*
X171102Y-44595D01*
X171067Y-44727D01*
X171018Y-44859D01*
X170963Y-44984D01*
X170900Y-45115D01*
X170824Y-45247D01*
X170734Y-45365D01*
X170637Y-45483D01*
X170630Y-45490D01*
X170609Y-45511D01*
X170575Y-45538D01*
X170533Y-45573D01*
X170478Y-45622D01*
X170408Y-45670D01*
X170332Y-45725D01*
X170242Y-45781D01*
X170145Y-45837D01*
X170034Y-45892D01*
X169916Y-45940D01*
X169791Y-45989D01*
X169652Y-46024D01*
X169507Y-46051D01*
X169361Y-46072D01*
X169202Y-46079D01*
X169139D01*
X169098Y-46072D01*
X169042D01*
X168980Y-46058D01*
X168903Y-46051D01*
X168827Y-46038D01*
X168647Y-45996D01*
X168460Y-45934D01*
X168363Y-45899D01*
X168259Y-45850D01*
X168162Y-45802D01*
X168064Y-45739D01*
X168057Y-45732D01*
X168044Y-45725D01*
X168016Y-45705D01*
X167981Y-45677D01*
X167933Y-45642D01*
X167884Y-45601D01*
X167829Y-45552D01*
X167773Y-45497D01*
X167711Y-45434D01*
X167641Y-45358D01*
X167579Y-45282D01*
X167510Y-45198D01*
X167447Y-45101D01*
X167385Y-45004D01*
X167329Y-44893D01*
X167274Y-44783D01*
Y-44776D01*
X167260Y-44755D01*
X167246Y-44720D01*
X167232Y-44665D01*
X167211Y-44602D01*
X167191Y-44526D01*
X167163Y-44436D01*
X167135Y-44325D01*
X167114Y-44207D01*
X167087Y-44075D01*
X167066Y-43923D01*
X167045Y-43763D01*
X167031Y-43590D01*
X167017Y-43403D01*
X167003Y-43201D01*
Y-42986D01*
Y-42973D01*
Y-42931D01*
Y-42869D01*
X167010Y-42785D01*
Y-42681D01*
X167017Y-42557D01*
X167024Y-42425D01*
X167038Y-42279D01*
X167052Y-42127D01*
X167066Y-41967D01*
X167114Y-41641D01*
X167184Y-41322D01*
X167225Y-41177D01*
X167274Y-41031D01*
Y-41024D01*
X167288Y-40996D01*
X167302Y-40962D01*
X167322Y-40913D01*
X167350Y-40851D01*
X167385Y-40781D01*
X167426Y-40705D01*
X167468Y-40622D01*
X167579Y-40449D01*
X167718Y-40261D01*
X167877Y-40088D01*
X167967Y-40005D01*
X168064Y-39929D01*
X168071Y-39922D01*
X168085Y-39915D01*
X168120Y-39894D01*
X168155Y-39873D01*
X168210Y-39845D01*
X168265Y-39811D01*
X168335Y-39776D01*
X168418Y-39741D01*
X168501Y-39707D01*
X168598Y-39672D01*
X168695Y-39644D01*
X168806Y-39610D01*
X169042Y-39568D01*
X169167Y-39561D01*
X169299Y-39554D01*
X169368D01*
X169424Y-39561D01*
D02*
G37*
G36*
X174763D02*
X174846Y-39568D01*
X174950Y-39575D01*
X175061Y-39589D01*
X175186Y-39610D01*
X175318Y-39630D01*
X175456Y-39658D01*
X175595Y-39693D01*
X175734Y-39727D01*
X175879Y-39776D01*
X176018Y-39832D01*
X176150Y-39894D01*
X176275Y-39970D01*
X176281Y-39977D01*
X176302Y-39991D01*
X176337Y-40012D01*
X176378Y-40046D01*
X176434Y-40095D01*
X176496Y-40143D01*
X176566Y-40206D01*
X176642Y-40282D01*
X176718Y-40365D01*
X176801Y-40455D01*
X176878Y-40553D01*
X176961Y-40664D01*
X177044Y-40781D01*
X177120Y-40906D01*
X177190Y-41045D01*
X177259Y-41191D01*
X177266Y-41198D01*
X177273Y-41225D01*
X177287Y-41274D01*
X177308Y-41329D01*
X177335Y-41406D01*
X177363Y-41489D01*
X177391Y-41593D01*
X177426Y-41704D01*
X177453Y-41828D01*
X177488Y-41960D01*
X177516Y-42099D01*
X177537Y-42252D01*
X177578Y-42571D01*
X177585Y-42737D01*
X177592Y-42903D01*
Y-42917D01*
Y-42945D01*
Y-43000D01*
X177585Y-43070D01*
X177578Y-43160D01*
X177571Y-43264D01*
X177557Y-43375D01*
X177544Y-43500D01*
X177523Y-43631D01*
X177502Y-43770D01*
X177432Y-44068D01*
X177384Y-44214D01*
X177335Y-44359D01*
X177280Y-44512D01*
X177211Y-44651D01*
X177204Y-44658D01*
X177190Y-44685D01*
X177169Y-44720D01*
X177141Y-44776D01*
X177100Y-44838D01*
X177051Y-44907D01*
X176996Y-44984D01*
X176933Y-45074D01*
X176857Y-45157D01*
X176781Y-45254D01*
X176691Y-45344D01*
X176593Y-45441D01*
X176490Y-45531D01*
X176378Y-45622D01*
X176254Y-45705D01*
X176129Y-45781D01*
X176122Y-45788D01*
X176094Y-45795D01*
X176059Y-45816D01*
X176004Y-45843D01*
X175942Y-45871D01*
X175858Y-45906D01*
X175768Y-45940D01*
X175671Y-45975D01*
X175560Y-46010D01*
X175436Y-46045D01*
X175311Y-46079D01*
X175172Y-46107D01*
X174888Y-46156D01*
X174735Y-46162D01*
X174576Y-46169D01*
X174485D01*
X174416Y-46162D01*
X174333Y-46156D01*
X174236Y-46142D01*
X174132Y-46128D01*
X174014Y-46107D01*
X173889Y-46079D01*
X173757Y-46051D01*
X173626Y-46010D01*
X173487Y-45961D01*
X173348Y-45906D01*
X173216Y-45837D01*
X173085Y-45767D01*
X172960Y-45677D01*
X172953Y-45670D01*
X172932Y-45656D01*
X172897Y-45628D01*
X172856Y-45587D01*
X172801Y-45538D01*
X172738Y-45476D01*
X172676Y-45407D01*
X172599Y-45323D01*
X172523Y-45233D01*
X172447Y-45129D01*
X172370Y-45018D01*
X172301Y-44893D01*
X172225Y-44762D01*
X172162Y-44616D01*
X172100Y-44464D01*
X172045Y-44304D01*
X172877Y-44110D01*
Y-44117D01*
X172891Y-44138D01*
X172897Y-44179D01*
X172918Y-44228D01*
X172939Y-44283D01*
X172974Y-44346D01*
X173043Y-44498D01*
X173133Y-44665D01*
X173251Y-44838D01*
X173376Y-44997D01*
X173452Y-45067D01*
X173529Y-45129D01*
X173535Y-45136D01*
X173549Y-45143D01*
X173570Y-45157D01*
X173605Y-45178D01*
X173646Y-45205D01*
X173695Y-45233D01*
X173750Y-45261D01*
X173820Y-45289D01*
X173896Y-45316D01*
X173972Y-45344D01*
X174153Y-45400D01*
X174361Y-45434D01*
X174472Y-45448D01*
X174659D01*
X174714Y-45441D01*
X174777Y-45434D01*
X174853Y-45427D01*
X174936Y-45420D01*
X175019Y-45407D01*
X175221Y-45358D01*
X175429Y-45296D01*
X175532Y-45254D01*
X175637Y-45205D01*
X175734Y-45150D01*
X175831Y-45088D01*
X175838Y-45081D01*
X175851Y-45074D01*
X175879Y-45053D01*
X175914Y-45025D01*
X175949Y-44991D01*
X175997Y-44942D01*
X176046Y-44893D01*
X176101Y-44838D01*
X176157Y-44769D01*
X176219Y-44699D01*
X176330Y-44540D01*
X176434Y-44353D01*
X176524Y-44138D01*
Y-44131D01*
X176531Y-44110D01*
X176545Y-44075D01*
X176552Y-44034D01*
X176566Y-43978D01*
X176586Y-43916D01*
X176600Y-43839D01*
X176621Y-43763D01*
X176642Y-43673D01*
X176656Y-43576D01*
X176691Y-43368D01*
X176711Y-43146D01*
X176718Y-42910D01*
Y-42903D01*
Y-42876D01*
Y-42834D01*
X176711Y-42772D01*
Y-42702D01*
X176704Y-42619D01*
X176698Y-42529D01*
X176691Y-42425D01*
X176677Y-42314D01*
X176663Y-42203D01*
X176621Y-41960D01*
X176559Y-41718D01*
X176483Y-41482D01*
Y-41475D01*
X176469Y-41454D01*
X176455Y-41426D01*
X176441Y-41385D01*
X176413Y-41329D01*
X176378Y-41274D01*
X176302Y-41142D01*
X176198Y-40989D01*
X176073Y-40844D01*
X175921Y-40698D01*
X175838Y-40636D01*
X175748Y-40573D01*
X175741D01*
X175727Y-40560D01*
X175699Y-40546D01*
X175657Y-40525D01*
X175609Y-40504D01*
X175553Y-40476D01*
X175491Y-40455D01*
X175422Y-40428D01*
X175262Y-40372D01*
X175075Y-40324D01*
X174874Y-40289D01*
X174770Y-40282D01*
X174659Y-40275D01*
X174590D01*
X174541Y-40282D01*
X174478Y-40289D01*
X174409Y-40296D01*
X174326Y-40310D01*
X174243Y-40324D01*
X174049Y-40372D01*
X173951Y-40407D01*
X173848Y-40449D01*
X173743Y-40497D01*
X173646Y-40553D01*
X173549Y-40615D01*
X173452Y-40684D01*
X173445Y-40691D01*
X173431Y-40705D01*
X173404Y-40726D01*
X173369Y-40761D01*
X173334Y-40802D01*
X173286Y-40858D01*
X173237Y-40920D01*
X173182Y-40989D01*
X173126Y-41073D01*
X173071Y-41163D01*
X173015Y-41260D01*
X172960Y-41371D01*
X172911Y-41489D01*
X172863Y-41620D01*
X172814Y-41759D01*
X172780Y-41905D01*
X171934Y-41690D01*
Y-41676D01*
X171948Y-41641D01*
X171961Y-41593D01*
X171989Y-41516D01*
X172017Y-41433D01*
X172059Y-41329D01*
X172100Y-41218D01*
X172156Y-41100D01*
X172218Y-40969D01*
X172287Y-40844D01*
X172364Y-40705D01*
X172454Y-40573D01*
X172551Y-40449D01*
X172655Y-40324D01*
X172773Y-40206D01*
X172897Y-40095D01*
X172904Y-40088D01*
X172932Y-40074D01*
X172967Y-40046D01*
X173022Y-40012D01*
X173085Y-39970D01*
X173168Y-39922D01*
X173258Y-39873D01*
X173369Y-39825D01*
X173487Y-39776D01*
X173612Y-39727D01*
X173750Y-39679D01*
X173903Y-39637D01*
X174062Y-39603D01*
X174229Y-39575D01*
X174402Y-39561D01*
X174590Y-39554D01*
X174687D01*
X174763Y-39561D01*
D02*
G37*
G36*
X45358Y50495D02*
X45462Y50343D01*
X45580Y50197D01*
X45698Y50072D01*
X45802Y49955D01*
X45850Y49913D01*
X45885Y49871D01*
X45920Y49837D01*
X45947Y49816D01*
X45961Y49802D01*
X45968Y49795D01*
X46156Y49636D01*
X46357Y49497D01*
X46551Y49365D01*
X46731Y49254D01*
X46807Y49212D01*
X46884Y49171D01*
X46953Y49129D01*
X47008Y49102D01*
X47057Y49081D01*
X47092Y49060D01*
X47112Y49053D01*
X47119Y49046D01*
Y48290D01*
X46981Y48346D01*
X46835Y48408D01*
X46696Y48478D01*
X46572Y48540D01*
X46461Y48602D01*
X46412Y48623D01*
X46371Y48651D01*
X46336Y48665D01*
X46315Y48679D01*
X46301Y48692D01*
X46294D01*
X46128Y48796D01*
X45982Y48893D01*
X45850Y48984D01*
X45746Y49067D01*
X45656Y49136D01*
X45594Y49185D01*
X45559Y49219D01*
X45545Y49233D01*
Y44234D01*
X44762D01*
Y50655D01*
X45268D01*
X45358Y50495D01*
D02*
G37*
G36*
X51245Y50738D02*
X51398Y50731D01*
X51682Y50683D01*
X51821Y50655D01*
X51946Y50620D01*
X52070Y50585D01*
X52181Y50551D01*
X52278Y50516D01*
X52369Y50482D01*
X52452Y50447D01*
X52514Y50419D01*
X52570Y50391D01*
X52604Y50370D01*
X52632Y50364D01*
X52639Y50357D01*
X52764Y50280D01*
X52889Y50197D01*
X53000Y50107D01*
X53104Y50017D01*
X53201Y49920D01*
X53291Y49830D01*
X53367Y49733D01*
X53443Y49649D01*
X53506Y49559D01*
X53561Y49483D01*
X53610Y49414D01*
X53651Y49351D01*
X53679Y49296D01*
X53700Y49261D01*
X53714Y49233D01*
X53721Y49226D01*
X53790Y49088D01*
X53846Y48935D01*
X53894Y48790D01*
X53943Y48644D01*
X54012Y48346D01*
X54033Y48207D01*
X54054Y48075D01*
X54068Y47951D01*
X54081Y47839D01*
X54088Y47736D01*
X54095Y47645D01*
X54102Y47576D01*
Y47521D01*
Y47493D01*
Y47479D01*
X54095Y47312D01*
X54088Y47146D01*
X54047Y46827D01*
X54026Y46675D01*
X53998Y46536D01*
X53963Y46404D01*
X53936Y46279D01*
X53901Y46168D01*
X53873Y46064D01*
X53846Y45981D01*
X53818Y45905D01*
X53797Y45849D01*
X53783Y45801D01*
X53776Y45773D01*
X53769Y45766D01*
X53700Y45621D01*
X53631Y45482D01*
X53554Y45357D01*
X53471Y45239D01*
X53388Y45128D01*
X53312Y45031D01*
X53228Y44941D01*
X53152Y44858D01*
X53076Y44781D01*
X53007Y44719D01*
X52944Y44671D01*
X52889Y44622D01*
X52847Y44587D01*
X52812Y44567D01*
X52792Y44553D01*
X52785Y44546D01*
X52660Y44469D01*
X52528Y44407D01*
X52389Y44352D01*
X52244Y44303D01*
X52105Y44268D01*
X51966Y44234D01*
X51828Y44206D01*
X51696Y44185D01*
X51571Y44164D01*
X51460Y44151D01*
X51356Y44144D01*
X51273Y44137D01*
X51197Y44130D01*
X51100D01*
X50912Y44137D01*
X50739Y44151D01*
X50573Y44178D01*
X50413Y44213D01*
X50261Y44254D01*
X50122Y44303D01*
X49997Y44352D01*
X49879Y44400D01*
X49768Y44449D01*
X49678Y44497D01*
X49595Y44546D01*
X49532Y44587D01*
X49477Y44622D01*
X49442Y44650D01*
X49415Y44664D01*
X49408Y44671D01*
X49283Y44781D01*
X49165Y44899D01*
X49061Y45024D01*
X48964Y45149D01*
X48874Y45281D01*
X48797Y45420D01*
X48728Y45544D01*
X48666Y45676D01*
X48610Y45794D01*
X48569Y45905D01*
X48527Y46009D01*
X48499Y46092D01*
X48472Y46168D01*
X48458Y46217D01*
X48444Y46252D01*
Y46266D01*
X49290Y46480D01*
X49324Y46335D01*
X49373Y46196D01*
X49422Y46064D01*
X49470Y45946D01*
X49526Y45835D01*
X49581Y45739D01*
X49637Y45648D01*
X49692Y45565D01*
X49747Y45496D01*
X49796Y45433D01*
X49844Y45378D01*
X49879Y45336D01*
X49914Y45302D01*
X49942Y45281D01*
X49956Y45267D01*
X49962Y45260D01*
X50059Y45191D01*
X50157Y45128D01*
X50254Y45073D01*
X50358Y45024D01*
X50462Y44983D01*
X50559Y44948D01*
X50753Y44899D01*
X50836Y44886D01*
X50919Y44872D01*
X50989Y44865D01*
X51051Y44858D01*
X51100Y44851D01*
X51169D01*
X51280Y44858D01*
X51384Y44865D01*
X51585Y44899D01*
X51772Y44948D01*
X51932Y45003D01*
X52001Y45031D01*
X52063Y45052D01*
X52119Y45080D01*
X52168Y45100D01*
X52209Y45121D01*
X52237Y45135D01*
X52251Y45149D01*
X52258D01*
X52348Y45212D01*
X52431Y45274D01*
X52583Y45420D01*
X52708Y45565D01*
X52812Y45718D01*
X52889Y45849D01*
X52923Y45905D01*
X52951Y45960D01*
X52965Y46002D01*
X52979Y46030D01*
X52993Y46051D01*
Y46057D01*
X53069Y46293D01*
X53131Y46536D01*
X53173Y46779D01*
X53187Y46890D01*
X53201Y47000D01*
X53208Y47105D01*
X53215Y47195D01*
X53222Y47278D01*
Y47347D01*
X53228Y47410D01*
Y47451D01*
Y47479D01*
Y47486D01*
X53222Y47722D01*
X53201Y47944D01*
X53166Y48152D01*
X53152Y48249D01*
X53131Y48339D01*
X53110Y48415D01*
X53097Y48491D01*
X53076Y48554D01*
X53062Y48609D01*
X53055Y48651D01*
X53041Y48685D01*
X53034Y48706D01*
Y48713D01*
X52944Y48928D01*
X52840Y49115D01*
X52729Y49275D01*
X52667Y49344D01*
X52611Y49414D01*
X52556Y49469D01*
X52507Y49518D01*
X52459Y49566D01*
X52424Y49601D01*
X52389Y49629D01*
X52362Y49649D01*
X52348Y49656D01*
X52341Y49663D01*
X52244Y49726D01*
X52147Y49781D01*
X52043Y49830D01*
X51939Y49871D01*
X51731Y49934D01*
X51529Y49982D01*
X51446Y49996D01*
X51363Y50003D01*
X51287Y50010D01*
X51224Y50017D01*
X51169Y50024D01*
X50982D01*
X50871Y50010D01*
X50663Y49975D01*
X50483Y49920D01*
X50406Y49892D01*
X50330Y49864D01*
X50261Y49837D01*
X50205Y49809D01*
X50157Y49781D01*
X50115Y49753D01*
X50080Y49733D01*
X50059Y49719D01*
X50046Y49712D01*
X50039Y49705D01*
X49962Y49642D01*
X49886Y49573D01*
X49761Y49414D01*
X49643Y49240D01*
X49553Y49074D01*
X49484Y48921D01*
X49449Y48859D01*
X49429Y48803D01*
X49408Y48755D01*
X49401Y48713D01*
X49387Y48692D01*
Y48685D01*
X48555Y48880D01*
X48610Y49039D01*
X48673Y49192D01*
X48735Y49337D01*
X48811Y49469D01*
X48881Y49594D01*
X48957Y49705D01*
X49033Y49809D01*
X49110Y49899D01*
X49186Y49982D01*
X49248Y50051D01*
X49311Y50114D01*
X49366Y50163D01*
X49408Y50204D01*
X49442Y50232D01*
X49463Y50246D01*
X49470Y50253D01*
X49595Y50343D01*
X49727Y50412D01*
X49858Y50482D01*
X49997Y50537D01*
X50136Y50585D01*
X50268Y50627D01*
X50399Y50655D01*
X50524Y50683D01*
X50642Y50703D01*
X50746Y50717D01*
X50843Y50731D01*
X50926Y50738D01*
X50996Y50745D01*
X51086D01*
X51245Y50738D01*
D02*
G37*
G36*
X40788Y50648D02*
X40913Y50641D01*
X41031Y50620D01*
X41142Y50599D01*
X41239Y50572D01*
X41336Y50537D01*
X41426Y50502D01*
X41503Y50468D01*
X41579Y50433D01*
X41641Y50398D01*
X41697Y50370D01*
X41738Y50336D01*
X41773Y50315D01*
X41801Y50294D01*
X41815Y50287D01*
X41822Y50280D01*
X41905Y50204D01*
X41981Y50128D01*
X42120Y49955D01*
X42245Y49781D01*
X42342Y49608D01*
X42383Y49524D01*
X42418Y49455D01*
X42446Y49386D01*
X42474Y49330D01*
X42487Y49282D01*
X42501Y49240D01*
X42515Y49219D01*
Y49212D01*
X42557Y49081D01*
X42591Y48935D01*
X42647Y48637D01*
X42688Y48332D01*
X42702Y48186D01*
X42716Y48041D01*
X42723Y47909D01*
X42730Y47784D01*
X42737Y47673D01*
Y47576D01*
X42744Y47500D01*
Y47437D01*
Y47403D01*
Y47389D01*
X42737Y47063D01*
X42716Y46758D01*
X42688Y46480D01*
X42647Y46224D01*
X42598Y45988D01*
X42543Y45773D01*
X42487Y45586D01*
X42425Y45413D01*
X42369Y45267D01*
X42314Y45135D01*
X42259Y45031D01*
X42210Y44941D01*
X42168Y44872D01*
X42141Y44823D01*
X42120Y44795D01*
X42113Y44788D01*
X42009Y44671D01*
X41898Y44573D01*
X41780Y44483D01*
X41662Y44407D01*
X41544Y44345D01*
X41420Y44289D01*
X41302Y44248D01*
X41191Y44213D01*
X41080Y44185D01*
X40983Y44164D01*
X40893Y44151D01*
X40816Y44144D01*
X40754Y44137D01*
X40705Y44130D01*
X40664D01*
X40532Y44137D01*
X40414Y44144D01*
X40296Y44164D01*
X40185Y44185D01*
X40081Y44220D01*
X39991Y44248D01*
X39901Y44282D01*
X39825Y44317D01*
X39748Y44352D01*
X39686Y44386D01*
X39630Y44421D01*
X39589Y44449D01*
X39554Y44469D01*
X39526Y44490D01*
X39513Y44497D01*
X39506Y44504D01*
X39422Y44580D01*
X39339Y44657D01*
X39200Y44830D01*
X39083Y45003D01*
X38986Y45177D01*
X38944Y45260D01*
X38909Y45336D01*
X38882Y45399D01*
X38854Y45461D01*
X38833Y45503D01*
X38826Y45544D01*
X38812Y45565D01*
Y45572D01*
X38771Y45704D01*
X38736Y45849D01*
X38674Y46148D01*
X38632Y46453D01*
X38618Y46598D01*
X38604Y46744D01*
X38597Y46876D01*
X38590Y47000D01*
X38583Y47105D01*
X38577Y47202D01*
Y47278D01*
Y47340D01*
Y47375D01*
Y47389D01*
Y47562D01*
X38583Y47729D01*
X38590Y47881D01*
X38597Y48027D01*
X38611Y48158D01*
X38625Y48283D01*
X38639Y48394D01*
X38646Y48498D01*
X38660Y48588D01*
X38674Y48665D01*
X38687Y48734D01*
X38701Y48790D01*
X38708Y48838D01*
X38715Y48866D01*
X38722Y48887D01*
Y48893D01*
X38777Y49095D01*
X38847Y49282D01*
X38909Y49441D01*
X38972Y49580D01*
X39006Y49636D01*
X39027Y49691D01*
X39055Y49739D01*
X39076Y49774D01*
X39097Y49802D01*
X39104Y49823D01*
X39117Y49837D01*
Y49844D01*
X39214Y49982D01*
X39325Y50107D01*
X39429Y50211D01*
X39533Y50294D01*
X39623Y50364D01*
X39693Y50405D01*
X39721Y50426D01*
X39741Y50440D01*
X39755Y50447D01*
X39762D01*
X39915Y50516D01*
X40067Y50565D01*
X40220Y50606D01*
X40359Y50627D01*
X40483Y50641D01*
X40532Y50648D01*
X40580Y50655D01*
X40664D01*
X40788Y50648D01*
D02*
G37*
G36*
X173142Y17302D02*
X173308Y17295D01*
X173461Y17275D01*
X173606Y17261D01*
X173738Y17240D01*
X173856Y17219D01*
X173967Y17191D01*
X174064Y17170D01*
X174147Y17150D01*
X174224Y17129D01*
X174279Y17108D01*
X174328Y17094D01*
X174362Y17080D01*
X174383Y17073D01*
X174390D01*
X174494Y17025D01*
X174598Y16969D01*
X174778Y16845D01*
X174931Y16713D01*
X175056Y16574D01*
X175111Y16512D01*
X175153Y16456D01*
X175194Y16401D01*
X175229Y16352D01*
X175250Y16318D01*
X175271Y16290D01*
X175278Y16269D01*
X175285Y16262D01*
X175340Y16151D01*
X175382Y16033D01*
X175458Y15791D01*
X175513Y15541D01*
X175548Y15305D01*
X175562Y15201D01*
X175576Y15097D01*
X175583Y15014D01*
Y14938D01*
X175590Y14875D01*
Y14785D01*
X175583Y14619D01*
X175576Y14459D01*
X175555Y14307D01*
X175534Y14161D01*
X175506Y14029D01*
X175479Y13905D01*
X175444Y13793D01*
X175409Y13697D01*
X175382Y13599D01*
X175347Y13523D01*
X175319Y13454D01*
X175291Y13398D01*
X175271Y13350D01*
X175250Y13322D01*
X175243Y13301D01*
X175236Y13294D01*
X175167Y13190D01*
X175097Y13093D01*
X175021Y13010D01*
X174945Y12927D01*
X174868Y12857D01*
X174785Y12788D01*
X174716Y12733D01*
X174640Y12684D01*
X174515Y12601D01*
X174459Y12573D01*
X174411Y12545D01*
X174369Y12525D01*
X174341Y12511D01*
X174321Y12504D01*
X174314D01*
X174203Y12462D01*
X174085Y12428D01*
X173835Y12372D01*
X173579Y12337D01*
X173336Y12310D01*
X173218Y12303D01*
X173114Y12296D01*
X173024Y12289D01*
X172941Y12282D01*
X172871D01*
X172823D01*
X172795D01*
X172781D01*
X169085D01*
Y13128D01*
X172781D01*
X172996Y13135D01*
X173197Y13142D01*
X173378Y13162D01*
X173544Y13190D01*
X173690Y13218D01*
X173821Y13253D01*
X173939Y13294D01*
X174043Y13329D01*
X174133Y13364D01*
X174210Y13405D01*
X174272Y13440D01*
X174321Y13468D01*
X174355Y13495D01*
X174383Y13509D01*
X174397Y13523D01*
X174404Y13530D01*
X174480Y13613D01*
X174543Y13703D01*
X174598Y13800D01*
X174646Y13905D01*
X174688Y14015D01*
X174723Y14126D01*
X174771Y14341D01*
X174792Y14445D01*
X174806Y14542D01*
X174813Y14633D01*
X174820Y14709D01*
X174827Y14771D01*
Y14861D01*
X174820Y15056D01*
X174792Y15236D01*
X174757Y15395D01*
X174723Y15534D01*
X174702Y15589D01*
X174681Y15638D01*
X174667Y15687D01*
X174653Y15721D01*
X174640Y15749D01*
X174626Y15770D01*
X174619Y15784D01*
Y15791D01*
X174529Y15922D01*
X174432Y16033D01*
X174335Y16123D01*
X174230Y16193D01*
X174147Y16248D01*
X174071Y16290D01*
X174043Y16304D01*
X174023Y16311D01*
X174016Y16318D01*
X174009D01*
X173932Y16345D01*
X173842Y16366D01*
X173648Y16408D01*
X173447Y16436D01*
X173246Y16449D01*
X173156Y16456D01*
X173065Y16463D01*
X172989D01*
X172920Y16470D01*
X172857D01*
X172816D01*
X172788D01*
X172781D01*
X169085D01*
Y17316D01*
X172781D01*
X172969D01*
X173142Y17302D01*
D02*
G37*
G36*
X175486Y7060D02*
X174730D01*
Y10216D01*
X174577Y10105D01*
X174508Y10049D01*
X174445Y9994D01*
X174390Y9945D01*
X174348Y9910D01*
X174321Y9883D01*
X174314Y9876D01*
X174272Y9834D01*
X174217Y9779D01*
X174161Y9716D01*
X174099Y9647D01*
X173960Y9501D01*
X173828Y9349D01*
X173703Y9203D01*
X173648Y9141D01*
X173599Y9078D01*
X173558Y9037D01*
X173530Y8995D01*
X173509Y8974D01*
X173502Y8967D01*
X173371Y8815D01*
X173246Y8669D01*
X173135Y8537D01*
X173024Y8419D01*
X172927Y8309D01*
X172830Y8212D01*
X172747Y8121D01*
X172670Y8038D01*
X172608Y7969D01*
X172546Y7913D01*
X172497Y7865D01*
X172455Y7823D01*
X172421Y7796D01*
X172400Y7768D01*
X172386Y7761D01*
X172379Y7754D01*
X172227Y7622D01*
X172088Y7518D01*
X171956Y7428D01*
X171838Y7352D01*
X171741Y7296D01*
X171665Y7255D01*
X171637Y7241D01*
X171616Y7234D01*
X171609Y7227D01*
X171602D01*
X171464Y7171D01*
X171325Y7137D01*
X171200Y7109D01*
X171082Y7088D01*
X170985Y7074D01*
X170909Y7067D01*
X170881D01*
X170861D01*
X170854D01*
X170847D01*
X170708Y7074D01*
X170576Y7088D01*
X170451Y7116D01*
X170326Y7151D01*
X170216Y7192D01*
X170112Y7241D01*
X170014Y7289D01*
X169931Y7338D01*
X169848Y7386D01*
X169779Y7435D01*
X169716Y7483D01*
X169668Y7525D01*
X169633Y7560D01*
X169598Y7587D01*
X169585Y7601D01*
X169578Y7608D01*
X169487Y7712D01*
X169411Y7823D01*
X169342Y7941D01*
X169279Y8066D01*
X169231Y8184D01*
X169189Y8309D01*
X169155Y8426D01*
X169127Y8544D01*
X169106Y8648D01*
X169092Y8752D01*
X169078Y8842D01*
X169071Y8919D01*
X169065Y8981D01*
Y9071D01*
X169071Y9238D01*
X169085Y9397D01*
X169106Y9543D01*
X169141Y9682D01*
X169175Y9813D01*
X169217Y9931D01*
X169259Y10042D01*
X169300Y10139D01*
X169349Y10229D01*
X169390Y10306D01*
X169432Y10375D01*
X169467Y10431D01*
X169501Y10472D01*
X169522Y10500D01*
X169536Y10521D01*
X169543Y10527D01*
X169633Y10625D01*
X169737Y10708D01*
X169841Y10784D01*
X169959Y10853D01*
X170070Y10909D01*
X170181Y10964D01*
X170299Y11006D01*
X170403Y11041D01*
X170507Y11075D01*
X170604Y11096D01*
X170694Y11117D01*
X170770Y11131D01*
X170833Y11138D01*
X170874Y11145D01*
X170902Y11152D01*
X170916D01*
X170999Y10347D01*
X170888Y10340D01*
X170784Y10333D01*
X170604Y10292D01*
X170438Y10236D01*
X170368Y10209D01*
X170306Y10174D01*
X170250Y10146D01*
X170202Y10112D01*
X170160Y10084D01*
X170125Y10063D01*
X170098Y10035D01*
X170077Y10021D01*
X170070Y10014D01*
X170063Y10007D01*
X170001Y9938D01*
X169945Y9869D01*
X169904Y9793D01*
X169862Y9716D01*
X169799Y9564D01*
X169758Y9418D01*
X169737Y9293D01*
X169723Y9238D01*
Y9189D01*
X169716Y9148D01*
Y8995D01*
X169730Y8898D01*
X169765Y8725D01*
X169820Y8579D01*
X169876Y8447D01*
X169938Y8350D01*
X169966Y8309D01*
X169994Y8274D01*
X170014Y8246D01*
X170028Y8225D01*
X170035Y8218D01*
X170042Y8212D01*
X170105Y8149D01*
X170167Y8101D01*
X170229Y8052D01*
X170299Y8017D01*
X170431Y7955D01*
X170555Y7913D01*
X170659Y7893D01*
X170708Y7879D01*
X170749D01*
X170777Y7872D01*
X170805D01*
X170819D01*
X170826D01*
X170909Y7879D01*
X170992Y7886D01*
X171159Y7927D01*
X171318Y7990D01*
X171464Y8059D01*
X171589Y8128D01*
X171637Y8156D01*
X171686Y8191D01*
X171720Y8212D01*
X171748Y8232D01*
X171762Y8239D01*
X171769Y8246D01*
X171866Y8322D01*
X171970Y8413D01*
X172081Y8517D01*
X172192Y8628D01*
X172421Y8856D01*
X172636Y9092D01*
X172740Y9203D01*
X172830Y9314D01*
X172913Y9411D01*
X172982Y9494D01*
X173045Y9564D01*
X173086Y9612D01*
X173121Y9647D01*
X173128Y9661D01*
X173232Y9786D01*
X173329Y9897D01*
X173419Y10007D01*
X173509Y10105D01*
X173592Y10202D01*
X173676Y10285D01*
X173745Y10361D01*
X173814Y10431D01*
X173877Y10493D01*
X173932Y10541D01*
X173981Y10590D01*
X174016Y10625D01*
X174050Y10659D01*
X174071Y10680D01*
X174085Y10687D01*
X174092Y10694D01*
X174244Y10819D01*
X174397Y10923D01*
X174543Y11013D01*
X174674Y11082D01*
X174785Y11138D01*
X174834Y11159D01*
X174868Y11179D01*
X174903Y11193D01*
X174924Y11200D01*
X174938Y11207D01*
X174945D01*
X175042Y11242D01*
X175139Y11263D01*
X175229Y11283D01*
X175312Y11290D01*
X175382Y11297D01*
X175437D01*
X175472D01*
X175486D01*
Y7060D01*
D02*
G37*
%LPC*%
G36*
X169125Y-42522D02*
X169070D01*
X169035Y-42529D01*
X168987Y-42536D01*
X168938Y-42543D01*
X168813Y-42571D01*
X168668Y-42612D01*
X168522Y-42681D01*
X168446Y-42723D01*
X168370Y-42772D01*
X168300Y-42834D01*
X168231Y-42896D01*
X168224Y-42903D01*
X168217Y-42917D01*
X168196Y-42938D01*
X168175Y-42966D01*
X168148Y-43007D01*
X168120Y-43056D01*
X168085Y-43111D01*
X168050Y-43174D01*
X168023Y-43243D01*
X167988Y-43326D01*
X167960Y-43410D01*
X167933Y-43507D01*
X167912Y-43611D01*
X167891Y-43715D01*
X167884Y-43833D01*
X167877Y-43957D01*
Y-43964D01*
Y-43985D01*
Y-44020D01*
X167884Y-44068D01*
X167891Y-44124D01*
X167898Y-44193D01*
X167905Y-44262D01*
X167919Y-44346D01*
X167967Y-44512D01*
X168030Y-44692D01*
X168071Y-44783D01*
X168120Y-44866D01*
X168175Y-44949D01*
X168238Y-45025D01*
X168245Y-45032D01*
X168252Y-45046D01*
X168272Y-45060D01*
X168300Y-45088D01*
X168335Y-45115D01*
X168376Y-45150D01*
X168480Y-45226D01*
X168605Y-45303D01*
X168758Y-45365D01*
X168834Y-45393D01*
X168924Y-45413D01*
X169014Y-45420D01*
X169104Y-45427D01*
X169153D01*
X169195Y-45420D01*
X169236Y-45413D01*
X169292Y-45407D01*
X169417Y-45372D01*
X169562Y-45323D01*
X169639Y-45289D01*
X169715Y-45247D01*
X169791Y-45198D01*
X169867Y-45136D01*
X169944Y-45074D01*
X170020Y-44997D01*
X170027Y-44991D01*
X170034Y-44977D01*
X170054Y-44956D01*
X170082Y-44921D01*
X170110Y-44880D01*
X170138Y-44824D01*
X170172Y-44769D01*
X170207Y-44699D01*
X170249Y-44623D01*
X170283Y-44540D01*
X170311Y-44450D01*
X170339Y-44346D01*
X170387Y-44131D01*
X170394Y-44013D01*
X170401Y-43888D01*
Y-43881D01*
Y-43860D01*
Y-43833D01*
X170394Y-43784D01*
X170387Y-43735D01*
X170380Y-43673D01*
X170353Y-43534D01*
X170311Y-43375D01*
X170249Y-43215D01*
X170207Y-43132D01*
X170159Y-43049D01*
X170103Y-42973D01*
X170041Y-42896D01*
X170034Y-42889D01*
X170027Y-42882D01*
X170006Y-42862D01*
X169971Y-42841D01*
X169937Y-42813D01*
X169895Y-42779D01*
X169846Y-42744D01*
X169791Y-42709D01*
X169652Y-42640D01*
X169500Y-42577D01*
X169319Y-42536D01*
X169222Y-42529D01*
X169125Y-42522D01*
D02*
G37*
G36*
X40719Y50003D02*
X40671D01*
X40567Y49996D01*
X40476Y49982D01*
X40379Y49955D01*
X40296Y49920D01*
X40137Y49837D01*
X40005Y49746D01*
X39949Y49698D01*
X39901Y49649D01*
X39859Y49601D01*
X39818Y49566D01*
X39790Y49531D01*
X39769Y49504D01*
X39762Y49490D01*
X39755Y49483D01*
X39686Y49372D01*
X39630Y49247D01*
X39582Y49095D01*
X39540Y48935D01*
X39506Y48769D01*
X39471Y48595D01*
X39429Y48242D01*
X39409Y48075D01*
X39402Y47916D01*
X39395Y47770D01*
X39388Y47645D01*
X39381Y47534D01*
Y47493D01*
Y47458D01*
Y47430D01*
Y47410D01*
Y47396D01*
Y47389D01*
X39388Y47105D01*
X39395Y46848D01*
X39416Y46612D01*
X39436Y46397D01*
X39464Y46203D01*
X39499Y46037D01*
X39533Y45884D01*
X39568Y45752D01*
X39603Y45641D01*
X39637Y45544D01*
X39665Y45461D01*
X39700Y45399D01*
X39721Y45350D01*
X39741Y45322D01*
X39748Y45302D01*
X39755Y45295D01*
X39825Y45205D01*
X39901Y45121D01*
X39977Y45052D01*
X40053Y44997D01*
X40130Y44941D01*
X40206Y44899D01*
X40275Y44865D01*
X40345Y44837D01*
X40469Y44802D01*
X40525Y44788D01*
X40574Y44781D01*
X40608D01*
X40643Y44775D01*
X40664D01*
X40761Y44781D01*
X40858Y44795D01*
X40948Y44823D01*
X41031Y44858D01*
X41191Y44934D01*
X41322Y45031D01*
X41426Y45128D01*
X41468Y45170D01*
X41503Y45205D01*
X41537Y45239D01*
X41558Y45267D01*
X41565Y45281D01*
X41572Y45288D01*
X41634Y45399D01*
X41690Y45530D01*
X41745Y45676D01*
X41787Y45835D01*
X41822Y46009D01*
X41849Y46182D01*
X41891Y46536D01*
X41912Y46702D01*
X41919Y46862D01*
X41926Y47007D01*
X41933Y47132D01*
X41940Y47236D01*
Y47285D01*
Y47319D01*
Y47347D01*
Y47368D01*
Y47382D01*
Y47389D01*
X41933Y47673D01*
X41919Y47930D01*
X41905Y48172D01*
X41877Y48387D01*
X41849Y48582D01*
X41815Y48762D01*
X41773Y48914D01*
X41738Y49053D01*
X41704Y49178D01*
X41662Y49275D01*
X41627Y49358D01*
X41600Y49427D01*
X41572Y49483D01*
X41551Y49518D01*
X41544Y49538D01*
X41537Y49545D01*
X41475Y49629D01*
X41406Y49698D01*
X41336Y49760D01*
X41267Y49809D01*
X41191Y49857D01*
X41121Y49892D01*
X40983Y49948D01*
X40858Y49982D01*
X40802Y49989D01*
X40761Y49996D01*
X40719Y50003D01*
D02*
G37*
%LPD*%
D11*
X66382Y33627D02*
X77382D01*
Y11506D02*
Y33627D01*
X66382Y11506D02*
X77382D01*
X66382D02*
Y33627D01*
X198592Y-57436D02*
Y-25437D01*
X156592D02*
X198592D01*
X156592Y-57436D02*
Y-25437D01*
Y-57436D02*
X198592D01*
X65163Y38630D02*
Y49630D01*
X43041Y38630D02*
X65163D01*
X43041D02*
Y49630D01*
X65163D01*
X141089Y58066D02*
X210089D01*
Y-23434D02*
Y58066D01*
X141089Y-23434D02*
X210089D01*
X141089D02*
Y58066D01*
M02*
