G04*
G04 #@! TF.GenerationSoftware,Altium Limited,Altium Designer,22.10.1 (41)*
G04*
G04 Layer_Physical_Order=1*
G04 Layer_Color=255*
%FSLAX44Y44*%
%MOMM*%
G71*
G04*
G04 #@! TF.SameCoordinates,6AC466C0-41EF-44D2-8528-C36EB44BF29F*
G04*
G04*
G04 #@! TF.FilePolarity,Positive*
G04*
G01*
G75*
%ADD12R,0.7000X0.9500*%
%ADD13R,2.0000X1.0000*%
%ADD14R,1.0000X0.2700*%
%ADD15R,1.0000X0.5200*%
%ADD16R,0.5000X0.4500*%
%ADD17R,0.5500X0.5500*%
%ADD18R,0.9500X0.7000*%
%ADD19R,0.7600X0.7200*%
%ADD20R,3.0000X2.1000*%
%ADD21R,1.6000X0.8000*%
%ADD22C,0.7870*%
%ADD23R,2.7000X1.5000*%
%ADD24R,0.8500X0.7500*%
%ADD25R,0.7500X0.8500*%
%ADD26R,0.5500X0.5500*%
%ADD27R,0.8000X0.8000*%
%ADD28R,0.7200X0.7600*%
%ADD29R,5.6000X5.6000*%
%ADD30O,0.2500X0.9000*%
%ADD31O,0.9000X0.2500*%
%ADD32R,0.5153X0.4725*%
G04:AMPARAMS|DCode=49|XSize=0.85mm|YSize=0.6mm|CornerRadius=0.3mm|HoleSize=0mm|Usage=FLASHONLY|Rotation=270.000|XOffset=0mm|YOffset=0mm|HoleType=Round|Shape=RoundedRectangle|*
%AMROUNDEDRECTD49*
21,1,0.8500,0.0000,0,0,270.0*
21,1,0.2500,0.6000,0,0,270.0*
1,1,0.6000,0.0000,-0.1250*
1,1,0.6000,0.0000,0.1250*
1,1,0.6000,0.0000,0.1250*
1,1,0.6000,0.0000,-0.1250*
%
%ADD49ROUNDEDRECTD49*%
%ADD50C,0.6000*%
G04:AMPARAMS|DCode=51|XSize=1.3mm|YSize=2.6mm|CornerRadius=0.65mm|HoleSize=0mm|Usage=FLASHONLY|Rotation=270.000|XOffset=0mm|YOffset=0mm|HoleType=Round|Shape=RoundedRectangle|*
%AMROUNDEDRECTD51*
21,1,1.3000,1.3000,0,0,270.0*
21,1,0.0000,2.6000,0,0,270.0*
1,1,1.3000,-0.6500,0.0000*
1,1,1.3000,-0.6500,0.0000*
1,1,1.3000,0.6500,0.0000*
1,1,1.3000,0.6500,0.0000*
%
%ADD51ROUNDEDRECTD51*%
G04:AMPARAMS|DCode=52|XSize=1.3mm|YSize=2.3mm|CornerRadius=0.65mm|HoleSize=0mm|Usage=FLASHONLY|Rotation=270.000|XOffset=0mm|YOffset=0mm|HoleType=Round|Shape=RoundedRectangle|*
%AMROUNDEDRECTD52*
21,1,1.3000,1.0000,0,0,270.0*
21,1,0.0000,2.3000,0,0,270.0*
1,1,1.3000,-0.5000,0.0000*
1,1,1.3000,-0.5000,0.0000*
1,1,1.3000,0.5000,0.0000*
1,1,1.3000,0.5000,0.0000*
%
%ADD52ROUNDEDRECTD52*%
%ADD54C,0.1270*%
%ADD55C,0.2175*%
%ADD56C,0.4500*%
%ADD57C,0.5000*%
G36*
X249922Y-59922D02*
X-30922D01*
Y58922D01*
X249922D01*
Y-59922D01*
D02*
G37*
%LPC*%
G36*
X94747Y56111D02*
X77202D01*
X76564Y55984D01*
X76024Y55622D01*
X70715Y50314D01*
X70354Y49773D01*
X70227Y49135D01*
Y48452D01*
X69949Y48176D01*
X68957Y47609D01*
X68667Y47667D01*
X61362D01*
Y49362D01*
X55219D01*
X54061Y49632D01*
X53051Y49632D01*
X50849D01*
Y46000D01*
Y42368D01*
X53051D01*
X54061Y42368D01*
X55219Y42638D01*
X61362D01*
Y44333D01*
X67595D01*
X68580Y43647D01*
X68833Y42379D01*
X69551Y41304D01*
X70626Y40586D01*
X71505Y40411D01*
Y39116D01*
X70614Y38939D01*
X69539Y38220D01*
X68821Y37145D01*
X68568Y35877D01*
X68821Y34609D01*
X68308Y33350D01*
X67824D01*
X66946Y33175D01*
X66202Y32678D01*
X65704Y31934D01*
X65530Y31056D01*
X65704Y30178D01*
X65871Y29928D01*
X64956Y29013D01*
X64260Y29477D01*
X62992Y29730D01*
X61724Y29477D01*
X60649Y28759D01*
X59931Y27684D01*
X59678Y26416D01*
X59712Y26248D01*
X59497Y25042D01*
X58790Y24868D01*
X58223Y24755D01*
X57148Y24037D01*
X56430Y22962D01*
X56178Y21694D01*
X56430Y20426D01*
X57148Y19351D01*
X57454Y17619D01*
X57391Y17524D01*
X57138Y16256D01*
X57391Y14988D01*
X57880Y14255D01*
X57901Y13456D01*
X57576Y12742D01*
X56839Y12249D01*
X56121Y11174D01*
X55982Y10478D01*
X54712Y10603D01*
Y19476D01*
X48070D01*
X42884Y24662D01*
X42343Y25024D01*
X41705Y25150D01*
X38826D01*
X38068Y26421D01*
X38230Y27113D01*
X38230Y28242D01*
Y30348D01*
X31960D01*
Y31618D01*
X38230D01*
Y34853D01*
X36722D01*
X36469Y36123D01*
X37128Y36396D01*
X38243Y37252D01*
X32761Y42734D01*
X33210Y43183D01*
X32761Y43632D01*
X38243Y49115D01*
X37128Y49970D01*
X35238Y50753D01*
X33210Y51020D01*
X23210D01*
X21181Y50753D01*
X19291Y49970D01*
X18176Y49115D01*
X23659Y43632D01*
X23210Y43183D01*
X23659Y42734D01*
X18176Y37252D01*
X19291Y36396D01*
X21181Y35613D01*
X23210Y35346D01*
X24624D01*
X25690Y34853D01*
X25690Y34076D01*
Y32390D01*
X24420Y32005D01*
X23844Y32867D01*
X22520Y33751D01*
X20960Y34062D01*
X19399Y33751D01*
X18076Y32867D01*
X17192Y31544D01*
X16881Y29983D01*
X17192Y28423D01*
X18076Y27100D01*
X19399Y26216D01*
X20960Y25905D01*
X22520Y26216D01*
X23844Y27100D01*
X24420Y27962D01*
X25690Y27577D01*
Y27113D01*
X25960Y25955D01*
Y22241D01*
X25748Y22029D01*
X25645Y22009D01*
X25104Y21647D01*
X21987Y18530D01*
X21625Y17990D01*
X21499Y17352D01*
Y-17385D01*
X21625Y-18023D01*
X21987Y-18563D01*
X25960Y-22536D01*
Y-25988D01*
X25726Y-26988D01*
X25341Y-27072D01*
X24522Y-26899D01*
X23844Y-25883D01*
X22520Y-24999D01*
X20960Y-24688D01*
X19399Y-24999D01*
X18076Y-25883D01*
X17192Y-27206D01*
X16881Y-28767D01*
Y-31267D01*
X17192Y-32827D01*
X18076Y-34150D01*
X19399Y-35034D01*
X19489Y-36347D01*
X19291Y-36429D01*
X18176Y-37285D01*
X23659Y-42768D01*
X23210Y-43217D01*
X23659Y-43665D01*
X18176Y-49148D01*
X19291Y-50004D01*
X21181Y-50786D01*
X23210Y-51054D01*
X33210D01*
X35238Y-50786D01*
X37128Y-50004D01*
X38243Y-49148D01*
X32761Y-43665D01*
X33210Y-43217D01*
X32761Y-42768D01*
X38243Y-37285D01*
X37128Y-36429D01*
X36469Y-36156D01*
X36722Y-34887D01*
X38230D01*
Y-31651D01*
X31960D01*
Y-30382D01*
X38230D01*
Y-27146D01*
X37960Y-25988D01*
Y-21137D01*
X37960Y-19917D01*
X37960D01*
Y-19866D01*
X37960Y-19866D01*
X37960Y-15166D01*
X37960Y-13896D01*
X37960Y-10167D01*
X37960Y-8896D01*
Y-5167D01*
X38653Y-4184D01*
X43483D01*
X48821Y-9521D01*
Y-13664D01*
X55821D01*
Y-13664D01*
X56321D01*
Y-13664D01*
X57693D01*
Y-15243D01*
X48005Y-24931D01*
X47752Y-24880D01*
X46484Y-25133D01*
X45409Y-25851D01*
X44691Y-26926D01*
X44438Y-28194D01*
X44691Y-29462D01*
X45409Y-30537D01*
X46484Y-31255D01*
X47752Y-31508D01*
X49020Y-31255D01*
X50095Y-30537D01*
X50813Y-29462D01*
X51066Y-28194D01*
X51015Y-27941D01*
X53705Y-25251D01*
X54975Y-25777D01*
Y-31114D01*
X54717Y-31165D01*
X53084Y-32256D01*
X51993Y-33888D01*
X51610Y-35814D01*
X51993Y-37740D01*
X53084Y-39372D01*
X54717Y-40463D01*
X56642Y-40846D01*
X58568Y-40463D01*
X60200Y-39372D01*
X61291Y-37740D01*
X61674Y-35814D01*
X61291Y-33888D01*
X60200Y-32256D01*
X58568Y-31165D01*
X58309Y-31114D01*
Y-25816D01*
X59969Y-24156D01*
X60214Y-24201D01*
X61333Y-25000D01*
X61460Y-25638D01*
X61821Y-26179D01*
X62362Y-26540D01*
X63000Y-26667D01*
X63638Y-26540D01*
X64179Y-26179D01*
X64721Y-25636D01*
X64865Y-25561D01*
X66201Y-25566D01*
X66203Y-25567D01*
X66946Y-26063D01*
X67824Y-26238D01*
X68494D01*
X68880Y-27508D01*
X68657Y-27657D01*
X67939Y-28732D01*
X67686Y-30000D01*
X67939Y-31268D01*
X68657Y-32343D01*
X69732Y-33061D01*
X71000Y-33314D01*
X72268Y-33061D01*
X73343Y-32343D01*
X74061Y-31268D01*
X74314Y-30000D01*
X74061Y-28732D01*
X73343Y-27657D01*
X73120Y-27508D01*
X73506Y-26238D01*
X74324D01*
X74896Y-26124D01*
X75334Y-26411D01*
X75607Y-26684D01*
X75893Y-27122D01*
X75780Y-27694D01*
Y-34130D01*
X64333Y-45577D01*
X61342D01*
X61291Y-45318D01*
X60200Y-43686D01*
X58568Y-42595D01*
X56642Y-42212D01*
X54717Y-42595D01*
X53084Y-43686D01*
X51993Y-45318D01*
X51610Y-47244D01*
X51993Y-49170D01*
X53084Y-50802D01*
X54717Y-51893D01*
X56642Y-52276D01*
X58568Y-51893D01*
X60200Y-50802D01*
X61291Y-49170D01*
X61342Y-48911D01*
X65024D01*
X65662Y-48784D01*
X66203Y-48423D01*
X69900Y-44725D01*
X71074Y-45211D01*
Y-53514D01*
X78716D01*
X80530Y-55328D01*
X81071Y-55689D01*
X81709Y-55816D01*
X95751D01*
X96389Y-55689D01*
X96806Y-55410D01*
X97283Y-55528D01*
X98076Y-55977D01*
Y-56967D01*
X105576D01*
Y-49467D01*
X105576D01*
X105673Y-48237D01*
X105846D01*
Y-45884D01*
X107309D01*
Y-48237D01*
X107482D01*
X107579Y-49467D01*
X107579D01*
Y-56967D01*
X115079D01*
Y-55930D01*
X115872Y-55481D01*
X116349Y-55363D01*
X116766Y-55642D01*
X117404Y-55769D01*
X131446D01*
X132084Y-55642D01*
X132625Y-55280D01*
X134439Y-53467D01*
X142081D01*
Y-44499D01*
X147842D01*
X148627Y-45677D01*
X148617Y-45769D01*
X148173Y-46065D01*
X147812Y-46606D01*
X147685Y-47244D01*
X147812Y-47882D01*
X148173Y-48423D01*
X148714Y-48784D01*
X149065Y-48854D01*
X151342Y-51130D01*
X151859Y-51562D01*
X151494Y-52643D01*
X151371Y-52829D01*
X151118Y-54097D01*
X151371Y-55365D01*
X152089Y-56440D01*
X153164Y-57158D01*
X154432Y-57411D01*
X155700Y-57158D01*
X156775Y-56440D01*
X157493Y-55365D01*
X157746Y-54097D01*
X157505Y-52889D01*
X157501Y-52817D01*
X158212Y-51619D01*
X159754D01*
X160392Y-51492D01*
X160932Y-51130D01*
X167258Y-44805D01*
X167619Y-44264D01*
X167746Y-43626D01*
Y-43087D01*
X171099D01*
Y-38202D01*
X166079D01*
Y-36932D01*
X171099D01*
Y-32047D01*
X172169Y-31564D01*
X173797D01*
Y-34452D01*
X173829Y-34613D01*
Y-42817D01*
X183329D01*
Y-32317D01*
X181785D01*
X180826Y-31564D01*
Y-14564D01*
X154190D01*
X153455Y-13673D01*
X153929Y-12564D01*
X180826D01*
Y265D01*
X182096Y650D01*
X182569Y-57D01*
X183245Y-509D01*
Y-5929D01*
X183372Y-6567D01*
X183733Y-7108D01*
X192733Y-16107D01*
Y-23750D01*
X210733D01*
Y-13750D01*
X195090D01*
X194034Y-12693D01*
X194520Y-11520D01*
X201098D01*
Y-6250D01*
X201733D01*
Y-5615D01*
X211003D01*
Y-3037D01*
X212176Y-2551D01*
X218805Y-9180D01*
Y-11429D01*
X218129Y-11881D01*
X217411Y-12956D01*
X217158Y-14224D01*
X217411Y-15492D01*
X218129Y-16567D01*
X219204Y-17285D01*
X220472Y-17538D01*
X221740Y-17285D01*
X222815Y-16567D01*
X223533Y-15492D01*
X223786Y-14224D01*
X223533Y-12956D01*
X222815Y-11881D01*
X222139Y-11429D01*
Y-8489D01*
X222012Y-7851D01*
X221651Y-7311D01*
X210733Y3608D01*
Y11250D01*
X192733D01*
Y2904D01*
X191463Y2377D01*
X190464Y3376D01*
Y22531D01*
X190337Y23169D01*
X189976Y23710D01*
X189901Y23785D01*
X189360Y24146D01*
X188722Y24273D01*
X185497D01*
Y27208D01*
X180612D01*
Y22188D01*
X179342D01*
Y27208D01*
X174457D01*
Y23856D01*
X172845D01*
Y25909D01*
X169393D01*
Y28571D01*
X172796D01*
Y32806D01*
X167726D01*
Y33441D01*
X167091D01*
Y38311D01*
X162656D01*
Y38041D01*
X159279D01*
Y41793D01*
X163362D01*
Y50793D01*
X151862D01*
Y41793D01*
X155945D01*
Y38041D01*
X153126D01*
Y30637D01*
X153094Y30476D01*
Y28184D01*
X146756Y21845D01*
X146285Y21877D01*
X145285Y22171D01*
X144946Y22678D01*
X144704Y22840D01*
Y24272D01*
X144946Y24434D01*
X145443Y25178D01*
X145618Y26056D01*
X145443Y26934D01*
X144946Y27678D01*
X144704Y27840D01*
Y29272D01*
X144946Y29434D01*
X145443Y30178D01*
X145618Y31056D01*
X145443Y31934D01*
X144946Y32678D01*
X144202Y33175D01*
X143324Y33350D01*
X136824D01*
X136252Y33236D01*
X135814Y33523D01*
X135540Y33796D01*
X135254Y34234D01*
X135368Y34806D01*
Y41306D01*
X135193Y42184D01*
X134696Y42928D01*
X133952Y43425D01*
X133074Y43600D01*
X132196Y43425D01*
X131452Y42928D01*
X131290Y42686D01*
X129858D01*
X129696Y42928D01*
X128952Y43425D01*
X128074Y43600D01*
X127196Y43425D01*
X126452Y42928D01*
X126290Y42686D01*
X124858D01*
X124696Y42928D01*
X123952Y43425D01*
X123074Y43600D01*
X122196Y43425D01*
X121452Y42928D01*
X121290Y42686D01*
X119858D01*
X119696Y42928D01*
X118952Y43425D01*
X118074Y43600D01*
X117196Y43425D01*
X116452Y42928D01*
X116290Y42686D01*
X114858D01*
X114696Y42928D01*
X113952Y43425D01*
X113074Y43600D01*
X112196Y43425D01*
X111452Y42928D01*
X110239Y43399D01*
X109741Y43907D01*
Y46309D01*
X111882D01*
Y53808D01*
X104382D01*
Y46309D01*
X106407D01*
Y42861D01*
X106290Y42686D01*
X104858D01*
X104696Y42928D01*
X103952Y43425D01*
X103074Y43600D01*
X102196Y43425D01*
X101452Y42928D01*
X101290Y42686D01*
X99858D01*
X99696Y42928D01*
X98952Y43425D01*
X98538Y43508D01*
X96910Y45135D01*
X97396Y46309D01*
X102882D01*
Y53808D01*
X97739D01*
X95926Y55622D01*
X95385Y55984D01*
X94747Y56111D01*
D02*
G37*
G36*
X49579Y49632D02*
X46368D01*
Y45940D01*
X40478D01*
X39997Y47102D01*
X39141Y48217D01*
X34108Y43183D01*
X39141Y38150D01*
X39997Y39265D01*
X40780Y41155D01*
X40971Y42606D01*
X46368D01*
Y42368D01*
X49579D01*
Y46000D01*
Y49632D01*
D02*
G37*
G36*
X247003Y56020D02*
X231368D01*
Y44885D01*
X247003D01*
Y56020D01*
D02*
G37*
G36*
X230098D02*
X214463D01*
Y44885D01*
X230098D01*
Y56020D01*
D02*
G37*
G36*
X179862Y50793D02*
X168362D01*
Y41793D01*
X179862D01*
Y42987D01*
X181132Y43373D01*
X181299Y43123D01*
X182374Y42405D01*
X183642Y42152D01*
X184910Y42405D01*
X185985Y43123D01*
X186703Y44198D01*
X186956Y45466D01*
X186703Y46734D01*
X185985Y47809D01*
X184910Y48527D01*
X183642Y48780D01*
X182374Y48527D01*
X181299Y47809D01*
X181132Y47559D01*
X179862Y47945D01*
Y50793D01*
D02*
G37*
G36*
X2391Y48217D02*
X-2642Y43183D01*
X2391Y38150D01*
X3247Y39265D01*
X4030Y41155D01*
X4297Y43183D01*
X4030Y45212D01*
X3247Y47102D01*
X2391Y48217D01*
D02*
G37*
G36*
X17278Y48217D02*
X16422Y47102D01*
X15640Y45212D01*
X15373Y43183D01*
X15640Y41155D01*
X16422Y39265D01*
X17278Y38150D01*
X22312Y43183D01*
X17278Y48217D01*
D02*
G37*
G36*
X-22472D02*
X-23328Y47102D01*
X-24110Y45212D01*
X-24377Y43183D01*
X-24110Y41155D01*
X-23328Y39265D01*
X-22472Y38150D01*
X-17438Y43183D01*
X-22472Y48217D01*
D02*
G37*
G36*
X209042Y42430D02*
X207774Y42177D01*
X206699Y41459D01*
X205981Y40384D01*
X205728Y39116D01*
X205887Y38319D01*
X200554Y32985D01*
X200193Y32445D01*
X200066Y31807D01*
Y23750D01*
X192733D01*
Y13750D01*
X210733D01*
Y23750D01*
X203400D01*
Y31116D01*
X208244Y35961D01*
X209042Y35802D01*
X210310Y36055D01*
X211385Y36773D01*
X212103Y37848D01*
X212356Y39116D01*
X212103Y40384D01*
X211385Y41459D01*
X210310Y42177D01*
X209042Y42430D01*
D02*
G37*
G36*
X189992D02*
X188724Y42177D01*
X187649Y41459D01*
X186931Y40384D01*
X186678Y39116D01*
X186931Y37848D01*
X187649Y36773D01*
X188724Y36055D01*
X189992Y35802D01*
X191260Y36055D01*
X192335Y36773D01*
X193053Y37848D01*
X193306Y39116D01*
X193053Y40384D01*
X192335Y41459D01*
X191260Y42177D01*
X189992Y42430D01*
D02*
G37*
G36*
X172796Y38311D02*
X168361D01*
Y34076D01*
X172796D01*
Y38311D01*
D02*
G37*
G36*
X247003Y43615D02*
X231368D01*
Y32480D01*
X247003D01*
Y43615D01*
D02*
G37*
G36*
X230098D02*
X214463D01*
Y32480D01*
X230098D01*
Y43615D01*
D02*
G37*
G36*
X58000Y37314D02*
X56732Y37061D01*
X55821Y36453D01*
X54712Y35976D01*
X54712Y35976D01*
X54712Y35976D01*
X45712D01*
Y24476D01*
X54712D01*
Y30877D01*
X54895Y31028D01*
X55982Y31440D01*
X56732Y30939D01*
X58000Y30686D01*
X59268Y30939D01*
X60343Y31657D01*
X61061Y32732D01*
X61314Y34000D01*
X61061Y35268D01*
X60343Y36343D01*
X59268Y37061D01*
X58000Y37314D01*
D02*
G37*
G36*
X-3540Y51020D02*
X-16540D01*
X-18569Y50753D01*
X-20459Y49970D01*
X-21574Y49115D01*
X-16091Y43632D01*
X-16540Y43183D01*
X-16091Y42734D01*
X-21574Y37252D01*
X-20459Y36396D01*
X-18569Y35613D01*
X-16540Y35346D01*
X-11707D01*
Y20254D01*
X-21310D01*
Y14619D01*
X-10040D01*
X1230D01*
Y20254D01*
X-8373D01*
Y35346D01*
X-3540D01*
X-1512Y35613D01*
X378Y36396D01*
X1493Y37252D01*
X-3989Y42734D01*
X-3540Y43183D01*
X-3989Y43632D01*
X1493Y49115D01*
X378Y49970D01*
X-1512Y50753D01*
X-3540Y51020D01*
D02*
G37*
G36*
X1230Y13348D02*
X-9405D01*
Y7714D01*
X1230D01*
Y13348D01*
D02*
G37*
G36*
X-10675D02*
X-21310D01*
Y7714D01*
X-10675D01*
Y13348D01*
D02*
G37*
G36*
X211003Y-6885D02*
X202368D01*
Y-11520D01*
X211003D01*
Y-6885D01*
D02*
G37*
G36*
X1230Y-7746D02*
X-9405D01*
Y-13382D01*
X1230D01*
Y-7746D01*
D02*
G37*
G36*
X-10675D02*
X-21310D01*
Y-13382D01*
X-10675D01*
Y-7746D01*
D02*
G37*
G36*
X247003Y-32480D02*
X231368D01*
Y-43615D01*
X247003D01*
Y-32480D01*
D02*
G37*
G36*
X230098D02*
X214463D01*
Y-43615D01*
X230098D01*
Y-32480D01*
D02*
G37*
G36*
X2391Y-38183D02*
X-2642Y-43217D01*
X2391Y-48250D01*
X3247Y-47135D01*
X4030Y-45245D01*
X4297Y-43217D01*
X4030Y-41188D01*
X3247Y-39298D01*
X2391Y-38183D01*
D02*
G37*
G36*
X39141D02*
X34108Y-43217D01*
X39141Y-48250D01*
X39997Y-47135D01*
X40780Y-45245D01*
X41047Y-43217D01*
X40780Y-41188D01*
X39997Y-39298D01*
X39141Y-38183D01*
D02*
G37*
G36*
X17278Y-38183D02*
X16422Y-39298D01*
X15640Y-41188D01*
X15373Y-43217D01*
X15640Y-45245D01*
X16422Y-47135D01*
X17278Y-48250D01*
X22312Y-43217D01*
X17278Y-38183D01*
D02*
G37*
G36*
X-22472D02*
X-23328Y-39298D01*
X-24110Y-41188D01*
X-24377Y-43217D01*
X-24110Y-45245D01*
X-23328Y-47135D01*
X-22472Y-48250D01*
X-17438Y-43217D01*
X-22472Y-38183D01*
D02*
G37*
G36*
X1230Y-14651D02*
X-10040D01*
X-21310D01*
Y-20287D01*
X-11707D01*
Y-35380D01*
X-16540D01*
X-18569Y-35647D01*
X-20459Y-36429D01*
X-21574Y-37285D01*
X-16091Y-42768D01*
X-16540Y-43217D01*
X-16091Y-43665D01*
X-21574Y-49148D01*
X-20459Y-50004D01*
X-18569Y-50786D01*
X-16540Y-51054D01*
X-3540D01*
X-1512Y-50786D01*
X378Y-50004D01*
X1493Y-49148D01*
X-3989Y-43665D01*
X-3540Y-43217D01*
X-3989Y-42768D01*
X1493Y-37285D01*
X378Y-36429D01*
X-1512Y-35647D01*
X-3540Y-35380D01*
X-8373D01*
Y-20287D01*
X1230D01*
Y-14651D01*
D02*
G37*
G36*
X247003Y-44885D02*
X231368D01*
Y-56020D01*
X247003D01*
Y-44885D01*
D02*
G37*
G36*
X230098D02*
X214463D01*
Y-56020D01*
X230098D01*
Y-44885D01*
D02*
G37*
%LPD*%
G36*
X146728Y-10746D02*
X146843Y-10999D01*
Y-11248D01*
X146970Y-11886D01*
X147331Y-12427D01*
X151826Y-16921D01*
Y-31564D01*
X151826D01*
X152306Y-32635D01*
Y-35932D01*
X156326D01*
Y-37202D01*
X152306D01*
Y-40587D01*
X152306D01*
X152306Y-40589D01*
X151176Y-41232D01*
X150925Y-41262D01*
X150434Y-41164D01*
X136796D01*
X136083Y-39894D01*
X136271Y-38947D01*
X136019Y-37678D01*
X135441Y-36813D01*
X135301Y-36603D01*
X135300Y-36602D01*
X134696Y-35816D01*
X135193Y-35072D01*
X135368Y-34194D01*
Y-27694D01*
X135254Y-27122D01*
X135540Y-26684D01*
X135814Y-26411D01*
X136252Y-26124D01*
X136824Y-26238D01*
X138568D01*
X138623Y-26298D01*
X139130Y-27508D01*
X138671Y-28196D01*
X138418Y-29464D01*
X138671Y-30732D01*
X139389Y-31807D01*
X140464Y-32525D01*
X141732Y-32778D01*
X143000Y-32525D01*
X144075Y-31807D01*
X144793Y-30732D01*
X145046Y-29464D01*
X144793Y-28196D01*
X144230Y-27353D01*
X144222Y-26977D01*
X144329Y-26355D01*
X144490Y-25871D01*
X144946Y-25566D01*
X145443Y-24822D01*
X145618Y-23944D01*
X145443Y-23066D01*
X144946Y-22322D01*
X144704Y-22160D01*
Y-20728D01*
X144946Y-20566D01*
X145443Y-19822D01*
X145618Y-18944D01*
X145443Y-18066D01*
X144946Y-17322D01*
X144704Y-17160D01*
Y-15728D01*
X144946Y-15566D01*
X145443Y-14822D01*
X145618Y-13944D01*
X145443Y-13066D01*
X144946Y-12322D01*
X144704Y-12160D01*
Y-10785D01*
X145695Y-10056D01*
X146728Y-10746D01*
D02*
G37*
G36*
X96452Y-35816D02*
X97196Y-36313D01*
X98074Y-36488D01*
X98952Y-36313D01*
X99696Y-35816D01*
X99858Y-35574D01*
X101290D01*
X101452Y-35816D01*
X102196Y-36313D01*
X102994Y-36472D01*
X105310Y-38788D01*
X105518Y-38927D01*
X105132Y-40197D01*
X102461D01*
Y-44217D01*
X101191D01*
Y-40197D01*
X98117D01*
X97709Y-39924D01*
X97071Y-39797D01*
X96197D01*
X95559Y-39924D01*
X95019Y-40286D01*
X94657Y-40826D01*
X94530Y-41464D01*
X94176Y-41846D01*
X93209Y-41476D01*
X93061Y-40732D01*
X92343Y-39657D01*
X91268Y-38939D01*
X90000Y-38686D01*
X88732Y-38939D01*
X87657Y-39657D01*
X86939Y-40732D01*
X86686Y-42000D01*
X86735Y-42244D01*
X86074Y-43514D01*
X86074D01*
Y-52482D01*
X82399D01*
X81074Y-51157D01*
Y-43514D01*
X72771D01*
X72285Y-42341D01*
X78153Y-36472D01*
X78952Y-36313D01*
X79696Y-35816D01*
X79858Y-35574D01*
X81290D01*
X81452Y-35816D01*
X82196Y-36313D01*
X83074Y-36488D01*
X83952Y-36313D01*
X84696Y-35816D01*
X84858Y-35574D01*
X86290D01*
X86452Y-35816D01*
X87196Y-36313D01*
X88074Y-36488D01*
X88952Y-36313D01*
X89696Y-35816D01*
X89858Y-35574D01*
X91290D01*
X91452Y-35816D01*
X92196Y-36313D01*
X93074Y-36488D01*
X93952Y-36313D01*
X94696Y-35816D01*
X94858Y-35574D01*
X96290D01*
X96452Y-35816D01*
D02*
G37*
D12*
X50212Y13726D02*
D03*
Y30226D02*
D03*
D13*
X-10040Y-14016D02*
D03*
Y13984D02*
D03*
D14*
X31960Y-17516D02*
D03*
Y-12516D02*
D03*
Y-7516D02*
D03*
Y-2517D02*
D03*
Y2483D02*
D03*
Y7484D02*
D03*
Y12484D02*
D03*
Y17484D02*
D03*
D15*
Y-23516D02*
D03*
Y-31016D02*
D03*
Y23484D02*
D03*
Y30984D02*
D03*
D16*
X52321Y-10414D02*
D03*
X59821D02*
D03*
X52321Y-1911D02*
D03*
X59821D02*
D03*
D17*
X80630Y50058D02*
D03*
X89629D02*
D03*
X99132D02*
D03*
X108132D02*
D03*
D18*
X157612Y46293D02*
D03*
X174112D02*
D03*
D19*
X157926Y33441D02*
D03*
X167726D02*
D03*
D20*
X230733Y44250D02*
D03*
Y-44250D02*
D03*
D21*
X201733Y18750D02*
D03*
Y6250D02*
D03*
Y-6250D02*
D03*
Y-18750D02*
D03*
D22*
X56642Y-35814D02*
D03*
Y-47244D02*
D03*
D23*
X166326Y-4064D02*
D03*
Y-23064D02*
D03*
D24*
X179977Y22188D02*
D03*
Y9689D02*
D03*
D25*
X166079Y-37567D02*
D03*
X178579D02*
D03*
D26*
X101826Y-44217D02*
D03*
Y-53217D02*
D03*
X111329Y-44217D02*
D03*
Y-53217D02*
D03*
X156326Y-36567D02*
D03*
Y-45567D02*
D03*
X156972Y9438D02*
D03*
Y18439D02*
D03*
D27*
X122081Y-48467D02*
D03*
X137081D02*
D03*
X76074Y-48514D02*
D03*
X91074D02*
D03*
D28*
X167974Y11039D02*
D03*
Y20838D02*
D03*
D29*
X105574Y3556D02*
D03*
D30*
X133074Y-30944D02*
D03*
X128074D02*
D03*
X123074D02*
D03*
X118074D02*
D03*
X113074D02*
D03*
X108074D02*
D03*
X103074D02*
D03*
X98074D02*
D03*
X93074D02*
D03*
X88074D02*
D03*
X83074D02*
D03*
X78074D02*
D03*
Y38056D02*
D03*
X83074D02*
D03*
X88074D02*
D03*
X93074D02*
D03*
X98074D02*
D03*
X103074D02*
D03*
X108074D02*
D03*
X113074D02*
D03*
X118074D02*
D03*
X123074D02*
D03*
X128074D02*
D03*
X133074D02*
D03*
D31*
X71074Y-23944D02*
D03*
Y-18944D02*
D03*
Y-13944D02*
D03*
Y-8944D02*
D03*
Y-3944D02*
D03*
Y1056D02*
D03*
Y6056D02*
D03*
Y11056D02*
D03*
Y16056D02*
D03*
Y21056D02*
D03*
Y26056D02*
D03*
Y31056D02*
D03*
X140074D02*
D03*
Y26056D02*
D03*
Y21056D02*
D03*
Y16056D02*
D03*
Y11056D02*
D03*
Y6056D02*
D03*
Y1056D02*
D03*
Y-3944D02*
D03*
Y-8944D02*
D03*
Y-13944D02*
D03*
Y-18944D02*
D03*
Y-23944D02*
D03*
D32*
X50214Y46000D02*
D03*
X57786D02*
D03*
D49*
X20960Y-30017D02*
D03*
D50*
Y29983D02*
D03*
D51*
X-10040Y-43217D02*
D03*
Y43183D02*
D03*
D52*
X28210Y-43217D02*
D03*
Y43183D02*
D03*
D54*
X68667Y46000D02*
X71020Y43647D01*
X71894D01*
X57786Y46000D02*
X68667D01*
X29299Y44273D02*
X48487D01*
X50214Y46000D01*
X28210Y43183D02*
X29299Y44273D01*
X71894Y43647D02*
Y49135D01*
X77202Y54444D01*
X94747D01*
X99132Y50058D01*
X77506Y41497D02*
X78074Y40929D01*
X74919Y41497D02*
X77506D01*
X72768Y43647D02*
X74919Y41497D01*
X71894Y43647D02*
X72768D01*
X78074Y38056D02*
Y40929D01*
X50212Y31476D02*
X52736Y34000D01*
X58000D01*
X50212Y30226D02*
Y31476D01*
X83074Y26056D02*
X83574Y25556D01*
X83074Y26056D02*
Y38056D01*
X63618Y-24382D02*
Y-23150D01*
X67824Y-18944D01*
X63000Y-25000D02*
X63618Y-24382D01*
X56642Y-25126D02*
X67824Y-13944D01*
Y-18944D02*
X71074D01*
X56642Y-35814D02*
Y-25126D01*
X71000Y-30000D02*
Y-24018D01*
X71074Y-23944D01*
X96197Y-41464D02*
X97071D01*
X97709Y-42102D01*
X99711D01*
X101826Y-44217D01*
X90000Y-47440D02*
X91074Y-48514D01*
X90000Y-47440D02*
Y-42000D01*
X184912Y-5929D02*
X197733Y-18750D01*
X184912Y-5929D02*
Y2286D01*
X197733Y-18750D02*
X201733D01*
X188797Y2686D02*
Y22531D01*
X188722Y22606D02*
X188797Y22531D01*
X197733Y-6250D02*
X201733D01*
X188797Y2686D02*
X197733Y-6250D01*
X205733Y6250D02*
X220472Y-8489D01*
X201733Y6250D02*
X205733D01*
X220472Y-14224D02*
Y-8489D01*
X201733Y18750D02*
Y31807D01*
X209042Y39116D01*
X-10040Y-43217D02*
Y-14016D01*
Y13984D02*
Y43183D01*
X29995Y-21551D02*
X31960Y-23516D01*
X27332Y-21551D02*
X29995D01*
X23166Y-17385D02*
X27332Y-21551D01*
X23166Y-17385D02*
Y17352D01*
X26282Y20468D01*
X26545D01*
X29560Y23484D01*
X31960D01*
X128074Y-30944D02*
Y-18944D01*
X127574Y-18444D02*
X128074Y-18944D01*
X103074Y-34194D02*
X106489Y-37609D01*
X103074Y-34194D02*
Y-30944D01*
X106489Y-37609D02*
X112534D01*
X115714Y-40789D01*
X131074Y11056D02*
X140074D01*
X127574Y14556D02*
X131074Y11056D01*
X179977Y22188D02*
X180394Y22606D01*
X188722D01*
X70894Y26236D02*
X71074Y26056D01*
X63172Y26236D02*
X70894D01*
X62992Y26416D02*
X63172Y26236D01*
X59491Y21694D02*
X60365D01*
X61277Y22606D02*
X61326D01*
X60365Y21694D02*
X61277Y22606D01*
X141732Y-29464D02*
Y-24512D01*
X62876Y21056D02*
X71074D01*
X61326Y22606D02*
X62876Y21056D01*
X71882Y35003D02*
Y35877D01*
X70612Y33733D02*
X71882Y35003D01*
X70612Y31624D02*
Y33733D01*
Y31624D02*
X71074Y31162D01*
Y31056D02*
Y31162D01*
X57912Y3589D02*
X58786D01*
X61273Y6076D02*
X71054D01*
X58786Y3589D02*
X61273Y6076D01*
X149813Y-47244D02*
X152521Y-49952D01*
X159754D02*
X166079Y-43626D01*
X149352Y-47244D02*
X149813D01*
X166079Y-43626D02*
Y-37567D01*
X152521Y-49952D02*
X159754D01*
X157326Y-37567D02*
X166079D01*
X156326Y-36567D02*
X157326Y-37567D01*
X113074Y-34194D02*
Y-30944D01*
X121711Y-42832D02*
X150434D01*
X151054Y-43452D02*
X154211D01*
X156326Y-45567D01*
X133016Y-38889D02*
Y-31002D01*
X133074Y-30944D01*
X132958Y-38947D02*
X133016Y-38889D01*
X150434Y-42832D02*
X151054Y-43452D01*
X113074Y-34194D02*
X121711Y-42832D01*
X174939Y45466D02*
X183642D01*
X174112Y46293D02*
X174939Y45466D01*
X157612Y33555D02*
Y46293D01*
Y33555D02*
X157726Y33441D01*
X152804Y18439D02*
X156972D01*
X149352Y14986D02*
X152804Y18439D01*
X154761Y30476D02*
X157726Y33441D01*
X154761Y27494D02*
Y30476D01*
X143324Y16056D02*
X154761Y27494D01*
X140074Y16056D02*
X143324D01*
X167974Y20838D02*
X169325Y22188D01*
X179977D01*
X167726Y21087D02*
X167974Y20838D01*
X167726Y21087D02*
Y33441D01*
X156972Y9438D02*
X158572Y11039D01*
X167974D01*
X143324Y6056D02*
X146706Y9438D01*
X140074Y6056D02*
X143324D01*
X146706Y9438D02*
X156972D01*
X175464Y-34452D02*
Y-29929D01*
Y-34452D02*
X178579Y-37567D01*
X168599Y-23064D02*
X175464Y-29929D01*
X166326Y-23064D02*
X168599D01*
X169497Y-4064D02*
X176362Y2801D01*
X166326Y-4064D02*
X169497D01*
X179477Y9689D02*
X179977D01*
X176362Y6574D02*
X179477Y9689D01*
X176362Y2801D02*
Y6574D01*
X143324Y1056D02*
X148444Y-4064D01*
X140074Y1056D02*
X143324D01*
X148444Y-4064D02*
X166326D01*
X143324Y-3944D02*
X148510Y-9130D01*
X160326Y-23064D02*
X166326D01*
X140074Y-3944D02*
X143324D01*
X148510Y-11248D02*
Y-9130D01*
Y-11248D02*
X160326Y-23064D01*
X140074Y-23944D02*
X141164D01*
X141732Y-24512D01*
X65024Y-47244D02*
X78074Y-34194D01*
X56642Y-47244D02*
X65024D01*
X78074Y-34194D02*
Y-30944D01*
X67824Y-13944D02*
X71074D01*
X71054Y6076D02*
X71074Y6056D01*
X60452Y16256D02*
X60552Y16156D01*
X70974D02*
X71074Y16056D01*
X60552Y16156D02*
X70974D01*
X108074Y50000D02*
X108132Y50058D01*
X108074Y38056D02*
Y50000D01*
X98074Y38056D02*
Y41614D01*
X89629Y50058D02*
X98074Y41614D01*
X82745Y45073D02*
Y47944D01*
X80630Y50058D02*
X82745Y47944D01*
Y45073D02*
X83074Y44744D01*
Y38056D02*
Y44744D01*
X41705Y23484D02*
X50212Y14976D01*
X31960Y23484D02*
X41705D01*
X50212Y13726D02*
Y14976D01*
X31960Y-2517D02*
Y2483D01*
X52071Y-1911D02*
X52321D01*
X31960Y7484D02*
X42676D01*
X52071Y-1911D01*
X44174Y-2517D02*
X52071Y-10414D01*
X52321D01*
X31960Y-2517D02*
X44174D01*
X31245Y-6801D02*
X31960Y-7516D01*
X27582Y-6801D02*
X31245D01*
X25325Y-4544D02*
X27582Y-6801D01*
X25325Y-4544D02*
Y4511D01*
X26282Y5469D01*
X26295D01*
X28310Y7484D01*
X31960D01*
X95751Y-54149D02*
X96683Y-53217D01*
X76074Y-48514D02*
X81709Y-54149D01*
X95751D01*
X101826Y-44217D02*
X111329D01*
X115714Y-42099D02*
Y-40789D01*
Y-42099D02*
X122081Y-48467D01*
X116519Y-53217D02*
X117404Y-54102D01*
X131446D02*
X137081Y-48467D01*
X111329Y-53217D02*
X116519D01*
X117404Y-54102D02*
X131446D01*
X96683Y-53217D02*
X101826D01*
D55*
X47752Y-28194D02*
X59821Y-16125D01*
Y-10414D01*
X62508Y-4440D02*
X68072D01*
X61234Y-3166D02*
Y-3074D01*
X59821Y-1911D02*
X60071D01*
X62508Y-7886D02*
X68072D01*
X61234Y-9252D02*
Y-9160D01*
X60071Y-10414D02*
X61234Y-9252D01*
X59821Y-10414D02*
X60071D01*
X61234Y-9160D02*
X62508Y-7886D01*
X60071Y-1911D02*
X61234Y-3074D01*
Y-3166D02*
X62508Y-4440D01*
D56*
X58000Y34000D02*
D03*
X63000Y-25000D02*
D03*
X71000Y-30000D02*
D03*
X96197Y-41464D02*
D03*
X90000Y-42000D02*
D03*
X220472Y-14224D02*
D03*
X209042Y39116D02*
D03*
X184912Y2286D02*
D03*
X188722Y22606D02*
D03*
X62992Y26416D02*
D03*
X59491Y21694D02*
D03*
X141732Y-29464D02*
D03*
X71894Y43647D02*
D03*
X71882Y35877D02*
D03*
X59182Y9906D02*
D03*
X57912Y3589D02*
D03*
X154432Y-54097D02*
D03*
X201422Y-53594D02*
D03*
X132958Y-38947D02*
D03*
X144272Y45466D02*
D03*
X183642D02*
D03*
X149352Y14986D02*
D03*
Y-47244D02*
D03*
X189992Y39116D02*
D03*
X60452Y16256D02*
D03*
X47752Y-28194D02*
D03*
D57*
X83574Y25556D02*
D03*
X94574D02*
D03*
X105574D02*
D03*
X116574D02*
D03*
X127574D02*
D03*
X83574Y14556D02*
D03*
X94574D02*
D03*
X105574D02*
D03*
X116574D02*
D03*
X127574D02*
D03*
X83574Y3556D02*
D03*
X94574D02*
D03*
X105574D02*
D03*
X116574D02*
D03*
X127574D02*
D03*
X83574Y-7444D02*
D03*
X94574D02*
D03*
X105574D02*
D03*
X116574D02*
D03*
X127574D02*
D03*
X83574Y-18444D02*
D03*
X94574D02*
D03*
X105574D02*
D03*
X116574D02*
D03*
X127574D02*
D03*
M02*
