G04*
G04 #@! TF.GenerationSoftware,Altium Limited,Altium Designer,22.10.1 (41)*
G04*
G04 Layer_Color=2752767*
%FSLAX44Y44*%
%MOMM*%
G71*
G04*
G04 #@! TF.SameCoordinates,6AC466C0-41EF-44D2-8528-C36EB44BF29F*
G04*
G04*
G04 #@! TF.FilePolarity,Positive*
G04*
G01*
G75*
%ADD74C,0.0508*%
%ADD75C,0.0677*%
D74*
X19944Y-31033D02*
Y-32048D01*
X21976D01*
Y-31033D01*
X22992D01*
Y-29000D01*
X21976D01*
Y-27984D01*
X19944D01*
Y-29000D01*
X18928D01*
Y-31033D01*
X19944D01*
X18928Y27952D02*
X19944D01*
X20960Y28967D01*
X21976Y27952D01*
X22992D01*
Y28967D01*
X21976Y29983D01*
X22992Y31000D01*
Y32016D01*
X21976D01*
X20960Y31000D01*
X19944Y32016D01*
X18928D01*
Y31000D01*
X19944Y29983D01*
X18928Y28967D01*
Y27952D01*
X-12072Y-43217D02*
X-10040Y-41185D01*
X-8008Y-43217D01*
X-10040Y-45248D01*
X-12072Y-43217D01*
Y43183D02*
X-10040Y45216D01*
X-8008Y43183D01*
X-10040Y41151D01*
X-12072Y43183D01*
X28210Y-45248D02*
X26178Y-41185D01*
X30242D01*
X28210Y-45248D01*
Y41151D02*
X26178Y45216D01*
X30242D01*
X28210Y41151D01*
X96197Y-43496D02*
X97213Y-42480D01*
X98229D01*
X97213Y-41464D01*
X98229Y-40448D01*
X97213D01*
X96197Y-39432D01*
X95181Y-40448D01*
X94165D01*
X95181Y-41464D01*
X94165Y-42480D01*
X95181D01*
X96197Y-43496D01*
X220472Y-16256D02*
X221488Y-15240D01*
X222504D01*
X221488Y-14224D01*
X222504Y-13208D01*
X221488D01*
X220472Y-12192D01*
X219456Y-13208D01*
X218440D01*
X219456Y-14224D01*
X218440Y-15240D01*
X219456D01*
X220472Y-16256D01*
X209042Y37084D02*
X210058Y38100D01*
X211074D01*
X210058Y39116D01*
X211074Y40132D01*
X210058D01*
X209042Y41148D01*
X208026Y40132D01*
X207010D01*
X208026Y39116D01*
X207010Y38100D01*
X208026D01*
X209042Y37084D01*
X184912Y254D02*
X185928Y1270D01*
X186944D01*
X185928Y2286D01*
X186944Y3302D01*
X185928D01*
X184912Y4318D01*
X183896Y3302D01*
X182880D01*
X183896Y2286D01*
X182880Y1270D01*
X183896D01*
X184912Y254D01*
X188722Y20574D02*
X189738Y21590D01*
X190754D01*
X189738Y22606D01*
X190754Y23622D01*
X189738D01*
X188722Y24638D01*
X187706Y23622D01*
X186690D01*
X187706Y22606D01*
X186690Y21590D01*
X187706D01*
X188722Y20574D01*
X62992Y24384D02*
X64008Y25400D01*
X65024D01*
X64008Y26416D01*
X65024Y27432D01*
X64008D01*
X62992Y28448D01*
X61976Y27432D01*
X60960D01*
X61976Y26416D01*
X60960Y25400D01*
X61976D01*
X62992Y24384D01*
X59491Y19662D02*
X60507Y20678D01*
X61523D01*
X60507Y21694D01*
X61523Y22710D01*
X60507D01*
X59491Y23726D01*
X58475Y22710D01*
X57459D01*
X58475Y21694D01*
X57459Y20678D01*
X58475D01*
X59491Y19662D01*
X141732Y-31496D02*
X142748Y-30480D01*
X143764D01*
X142748Y-29464D01*
X143764Y-28448D01*
X142748D01*
X141732Y-27432D01*
X140716Y-28448D01*
X139700D01*
X140716Y-29464D01*
X139700Y-30480D01*
X140716D01*
X141732Y-31496D01*
X71894Y41615D02*
X72910Y42631D01*
X73926D01*
X72910Y43647D01*
X73926Y44663D01*
X72910D01*
X71894Y45679D01*
X70878Y44663D01*
X69862D01*
X70878Y43647D01*
X69862Y42631D01*
X70878D01*
X71894Y41615D01*
X71882Y33845D02*
X72898Y34861D01*
X73914D01*
X72898Y35877D01*
X73914Y36893D01*
X72898D01*
X71882Y37909D01*
X70866Y36893D01*
X69850D01*
X70866Y35877D01*
X69850Y34861D01*
X70866D01*
X71882Y33845D01*
X59182Y7874D02*
X60198Y8890D01*
X61214D01*
X60198Y9906D01*
X61214Y10922D01*
X60198D01*
X59182Y11938D01*
X58166Y10922D01*
X57150D01*
X58166Y9906D01*
X57150Y8890D01*
X58166D01*
X59182Y7874D01*
X57912Y1557D02*
X58928Y2573D01*
X59944D01*
X58928Y3589D01*
X59944Y4605D01*
X58928D01*
X57912Y5621D01*
X56896Y4605D01*
X55880D01*
X56896Y3589D01*
X55880Y2573D01*
X56896D01*
X57912Y1557D01*
X154432Y-56129D02*
X155448Y-55113D01*
X156464D01*
X155448Y-54097D01*
X156464Y-53081D01*
X155448D01*
X154432Y-52065D01*
X153416Y-53081D01*
X152400D01*
X153416Y-54097D01*
X152400Y-55113D01*
X153416D01*
X154432Y-56129D01*
X132958Y-40979D02*
X133974Y-39963D01*
X134990D01*
X133974Y-38947D01*
X134990Y-37931D01*
X133974D01*
X132958Y-36915D01*
X131942Y-37931D01*
X130926D01*
X131942Y-38947D01*
X130926Y-39963D01*
X131942D01*
X132958Y-40979D01*
X144272Y43434D02*
X145288Y44450D01*
X146304D01*
X145288Y45466D01*
X146304Y46482D01*
X145288D01*
X144272Y47498D01*
X143256Y46482D01*
X142240D01*
X143256Y45466D01*
X142240Y44450D01*
X143256D01*
X144272Y43434D01*
X183642D02*
X184658Y44450D01*
X185674D01*
X184658Y45466D01*
X185674Y46482D01*
X184658D01*
X183642Y47498D01*
X182626Y46482D01*
X181610D01*
X182626Y45466D01*
X181610Y44450D01*
X182626D01*
X183642Y43434D01*
X149352Y12954D02*
X150368Y13970D01*
X151384D01*
X150368Y14986D01*
X151384Y16002D01*
X150368D01*
X149352Y17018D01*
X148336Y16002D01*
X147320D01*
X148336Y14986D01*
X147320Y13970D01*
X148336D01*
X149352Y12954D01*
Y-49276D02*
X150368Y-48260D01*
X151384D01*
X150368Y-47244D01*
X151384Y-46228D01*
X150368D01*
X149352Y-45212D01*
X148336Y-46228D01*
X147320D01*
X148336Y-47244D01*
X147320Y-48260D01*
X148336D01*
X149352Y-49276D01*
X189992Y37084D02*
X191008Y38100D01*
X192024D01*
X191008Y39116D01*
X192024Y40132D01*
X191008D01*
X189992Y41148D01*
X188976Y40132D01*
X187960D01*
X188976Y39116D01*
X187960Y38100D01*
X188976D01*
X189992Y37084D01*
X81542Y23524D02*
Y27588D01*
X85606D01*
Y23524D01*
X81542D01*
X92542D02*
Y27588D01*
X96606D01*
Y23524D01*
X92542D01*
X103542D02*
Y27588D01*
X107606D01*
Y23524D01*
X103542D01*
X114542D02*
Y27588D01*
X118606D01*
Y23524D01*
X114542D01*
X125542D02*
Y27588D01*
X129606D01*
Y23524D01*
X125542D01*
X81542Y12524D02*
Y16588D01*
X85606D01*
Y12524D01*
X81542D01*
X92542D02*
Y16588D01*
X96606D01*
Y12524D01*
X92542D01*
X103542D02*
Y16588D01*
X107606D01*
Y12524D01*
X103542D01*
X114542D02*
Y16588D01*
X118606D01*
Y12524D01*
X114542D01*
X125542D02*
Y16588D01*
X129606D01*
Y12524D01*
X125542D01*
X81542Y1524D02*
Y5588D01*
X85606D01*
Y1524D01*
X81542D01*
X92542D02*
Y5588D01*
X96606D01*
Y1524D01*
X92542D01*
X103542D02*
Y5588D01*
X107606D01*
Y1524D01*
X103542D01*
X114542D02*
Y5588D01*
X118606D01*
Y1524D01*
X114542D01*
X125542D02*
Y5588D01*
X129606D01*
Y1524D01*
X125542D01*
X81542Y-9476D02*
Y-5412D01*
X85606D01*
Y-9476D01*
X81542D01*
X92542D02*
Y-5412D01*
X96606D01*
Y-9476D01*
X92542D01*
X103542D02*
Y-5412D01*
X107606D01*
Y-9476D01*
X103542D01*
X114542D02*
Y-5412D01*
X118606D01*
Y-9476D01*
X114542D01*
X125542D02*
Y-5412D01*
X129606D01*
Y-9476D01*
X125542D01*
X81542Y-20476D02*
Y-16412D01*
X85606D01*
Y-20476D01*
X81542D01*
X92542D02*
Y-16412D01*
X96606D01*
Y-20476D01*
X92542D01*
X103542D02*
Y-16412D01*
X107606D01*
Y-20476D01*
X103542D01*
X114542D02*
Y-16412D01*
X118606D01*
Y-20476D01*
X114542D01*
X125542D02*
Y-16412D01*
X129606D01*
Y-20476D01*
X125542D01*
D75*
X60032Y34000D02*
G03*
X60032Y34000I-2032J0D01*
G01*
X65032Y-25000D02*
G03*
X65032Y-25000I-2032J0D01*
G01*
X73032Y-30000D02*
G03*
X73032Y-30000I-2032J0D01*
G01*
X92032Y-42000D02*
G03*
X92032Y-42000I-2032J0D01*
G01*
X203454Y-53594D02*
G03*
X203454Y-53594I-2032J0D01*
G01*
X62484Y16256D02*
G03*
X62484Y16256I-2032J0D01*
G01*
X49784Y-28194D02*
G03*
X49784Y-28194I-2032J0D01*
G01*
M02*
