G04*
G04 #@! TF.GenerationSoftware,Altium Limited,Altium Designer,22.10.1 (41)*
G04*
G04 Layer_Color=16711935*
%FSLAX44Y44*%
%MOMM*%
G71*
G04*
G04 #@! TF.SameCoordinates,6AC466C0-41EF-44D2-8528-C36EB44BF29F*
G04*
G04*
G04 #@! TF.FilePolarity,Positive*
G04*
G01*
G75*
%ADD72C,0.1000*%
D72*
X137074Y-22944D02*
G03*
X137074Y-22944I-5000J0D01*
G01*
X54212Y13976D02*
Y29976D01*
X46212Y13976D02*
X54212D01*
X46212D02*
Y29976D01*
X54212D01*
X50122Y-31499D02*
X60622D01*
X50122Y-36999D02*
X60622D01*
Y-31499D01*
X50122Y-36999D02*
Y-31499D01*
X42502Y19006D02*
X53002D01*
X42502Y13506D02*
X53002D01*
Y19006D01*
X42502Y13506D02*
Y19006D01*
X42502Y25009D02*
X53002D01*
X42502Y30508D02*
X53002D01*
X42502Y25009D02*
Y30508D01*
X53002Y25009D02*
Y30508D01*
X70372Y-15997D02*
Y-1997D01*
X40372Y-15997D02*
Y-1997D01*
Y-15997D02*
X70372D01*
X40372Y-1997D02*
X70372D01*
X50821Y-13164D02*
Y-7664D01*
X61321Y-13164D02*
Y-7664D01*
X50821D02*
X61321D01*
X50821Y-13164D02*
X61321D01*
X50821Y-4661D02*
Y839D01*
X61321Y-4661D02*
Y839D01*
X50821D02*
X61321D01*
X50821Y-4661D02*
X61321D01*
X79879Y52808D02*
X90379D01*
X79879Y47309D02*
X90379D01*
X79879D02*
Y52808D01*
X90379Y47309D02*
Y52808D01*
X157862Y42293D02*
Y50293D01*
X173862D01*
Y42293D02*
Y50293D01*
X157862Y42293D02*
X173862D01*
X98382Y52808D02*
X108882D01*
X98382Y47309D02*
X108882D01*
X98382D02*
Y52808D01*
X108882Y47309D02*
Y52808D01*
X157576Y36191D02*
X168076D01*
X157576Y30691D02*
X168076D01*
X157576D02*
Y36191D01*
X168076Y30691D02*
Y36191D01*
X199733Y50749D02*
X251733D01*
X199733Y-50750D02*
Y50749D01*
Y-50750D02*
X251733D01*
Y50749D01*
X153826Y-29564D02*
X178826D01*
X153826D02*
Y2436D01*
X178826Y-29564D02*
Y2436D01*
X153826D02*
X178826D01*
X175477Y24439D02*
X184477D01*
X175477Y7438D02*
X184477D01*
Y24439D01*
X175477Y7438D02*
Y24439D01*
X163829Y-42067D02*
Y-33067D01*
X180829Y-42067D02*
Y-33067D01*
X163829D02*
X180829D01*
X163829Y-42067D02*
X180829D01*
X216842Y-4944D02*
Y12056D01*
X225842Y-4944D02*
Y12056D01*
X216842D02*
X225842D01*
X216842Y-4944D02*
X225842D01*
X225842Y-38447D02*
Y-21446D01*
X216842Y-38447D02*
Y-21446D01*
Y-38447D02*
X225842D01*
X216842Y-21446D02*
X225842D01*
Y28559D02*
Y45559D01*
X216842Y28559D02*
Y45559D01*
Y28559D02*
X225842D01*
X216842Y45559D02*
X225842D01*
X104576Y-53967D02*
Y-43467D01*
X99076Y-53967D02*
Y-43467D01*
X104576D01*
X99076Y-53967D02*
X104576D01*
X114079D02*
Y-43467D01*
X108579Y-53967D02*
Y-43467D01*
X114079D01*
X108579Y-53967D02*
X114079D01*
X159076Y-46317D02*
Y-35817D01*
X153576Y-46317D02*
Y-35817D01*
X159076D01*
X153576Y-46317D02*
X159076D01*
X73793Y49066D02*
X84293D01*
X73793Y54566D02*
X84293D01*
X73793Y49066D02*
Y54566D01*
X84293Y49066D02*
Y54566D01*
X114892Y-39414D02*
X125392D01*
X114892Y-44914D02*
X125392D01*
Y-39414D01*
X114892Y-44914D02*
Y-39414D01*
X69625Y-47414D02*
Y-36914D01*
X75125Y-47414D02*
Y-36914D01*
X69625D02*
X75125D01*
X69625Y-47414D02*
X75125D01*
X138589D02*
Y-36914D01*
X144089Y-47414D02*
Y-36914D01*
X138589D02*
X144089D01*
X138589Y-47414D02*
X144089D01*
X165224Y10689D02*
X170725D01*
X165224Y21188D02*
X170725D01*
X165224Y10689D02*
Y21188D01*
X170725Y10689D02*
Y21188D01*
X70074Y39056D02*
X141074D01*
X70074Y-31944D02*
X141074D01*
X70074D02*
Y39056D01*
X141074Y-31944D02*
Y39056D01*
X154222Y8688D02*
X159722D01*
X154222Y19188D02*
X159722D01*
X154222Y8688D02*
Y19188D01*
X159722Y8688D02*
Y19188D01*
M02*
