M48
;Layer_Color=9474304
;FILE_FORMAT=2:4
METRIC,LZ
;TYPE=PLATED
T1F00S00C0.2000
T2F00S00C0.2000
;TYPE=NON_PLATED
T4F00S00C0.6000
%
T01
X047752Y-028194
X063Y-025
X071Y-03
X09Y-042
X096197Y-041464
X132958Y-038947
X141732Y-029464
X149352Y-047244
X154432Y-054097
X201422Y-053594
X220472Y-014224
X184912Y002286
X188722Y022606
X189992Y039116
X183642Y045466
X209042Y039116
X144272Y045466
X149352Y014986
X060452Y016256
X059491Y021694
X062992Y026416
X058Y034
X071882Y035877
X071894Y043647
X059182Y009906
X057912Y003589
T02
X083574Y-018444
X094574
Y-007444
X083574
Y003556
X094574
Y014556
Y025556
X083574
Y014556
X105574
Y025556
X116574
Y014556
X127574
Y025556
Y003556
X116574
X105574
Y-007444
X116574
X127574
Y-018444
X116574
X105574
T04
X02096Y029983
M30
